<?xml version="1.0" encoding="UTF-8"?>
<svg xmlns="http://www.w3.org/2000/svg" id="Layer_1" viewBox="0 0 685.53 265.45">
  <path d="m311.71,70.46h5.67v-26.49c-5.03,0-7.61.7-9.07,2.57-1.58,1.79-2.57,5.01-2.54,8.45h-1.19v-12.2h31.13l-.04,12.2h-1.07c.04-3.31-.95-6.53-2.62-8.41-1.5-1.87-4.08-2.61-9.27-2.61v26.49h5.23v1.39h-16.24v-1.39h0Z" style="fill:#14292e;"></path>
  <path d="m342.26,70.46h4.79v-26.27h-4.79v-1.39h15.29v1.39h-5.03v12.33h17.27v-12.33h-4.91v-1.39h15.17v1.39h-5.03v26.27h5.03v1.39h-15.25l.04-1.39h4.95v-12.37h-17.27v12.37h5.03v1.39h-15.29v-1.39h0Z" style="fill:#14292e;"></path>
  <path d="m386.87,70.46h4.87v-26.27h-4.87v-1.39h29.79v11.68h-1.23c-.4-7.41-3.49-10.28-11.05-10.28h-7.29v12.33h4.59c2.3,0,3.8-.39,4.67-1.22,1.11-1.05,1.66-2.74,1.66-4.88,0-.13,0-.44-.04-.74h1.39v15.16h-1.31c-.36-5.49-1.66-6.93-6.3-6.88h-4.67v12.5h8.2c7.49,0,10.42-2.83,10.89-10.5h1.19v11.89h-30.5v-1.39h0Z" style="fill:#14292e;"></path>
  <path d="m444.65,70.46h5.19v-26.27h-5.19v-1.39h21.07c2.54,0,4,.17,5.66.65,2.69.78,4.44,3.44,4.44,6.67,0,4.18-2.73,6.75-7.76,7.27,4.59.87,6.5,3.14,6.85,8.28.28,3.66.83,4.84,2.34,4.84s1.94-1.18,1.94-4.75h1.19c0,2.27-.2,3.66-.67,4.53-.71,1.35-2.06,2.05-4,2.05s-3.64-.74-4.71-2c-.91-1.13-1.31-2.53-1.7-6.27-.4-4.27-2.06-6.01-5.54-5.92h-8.52v12.33h5.35v1.39h-15.92v-1.39l-.02-.02Zm10.58-13.81h8.28c1.9,0,3.64-.44,4.6-1.09,1.5-1.09,2.38-3.01,2.38-5.05,0-2.31-1.15-4.49-2.97-5.53-.91-.57-1.58-.74-2.97-.74h-9.31v12.42h-.01Z" style="fill:#14292e;"></path>
  <path d="m512.14,45.72c3.17,2.96,4.99,7.23,4.99,11.63,0,8.84-6.77,15.55-15.69,15.55s-15.29-6.58-15.29-15.6,6.97-15.55,15.73-15.55c4.04,0,7.41,1.31,10.26,3.96h0Zm-20.6,11.24c0,4.75.87,8.15,2.73,10.63,1.94,2.61,4.63,4.09,7.53,4.09,6.18,0,9.9-5.49,9.9-14.68,0-4.49-.83-7.88-2.5-10.24-1.66-2.31-4.36-3.66-7.45-3.66-6.38,0-10.22,5.18-10.22,13.85h0Z" style="fill:#14292e;"></path>
  <path d="m520.61,42.8h15.84v1.39h-5.74l9.82,12.59,5.94-8.45c.75-1.09,1.23-2.09,1.23-2.74,0-.52-.32-.96-.91-1.18-.34-.15-1.59-.22-3.76-.22v-1.39h12.2v1.39h-.4c-3.68,0-3.92.13-6.93,4.27l-6.81,9.93v12.07h6.14v1.39h-17.75v-1.39h6.3v-11.68l-11.57-14.59h-3.6v-1.39h0Z" style="fill:#14292e;"></path>
  <path d="m554.2,70.55c3.01-.04,3.68-.52,5.47-3.88l12.83-25.18,13.82,29.06h3.68v1.31h-13.98v-1.31h4.48l-4.04-8.93h-12.83l-2.73,5.4-.04.17c-.29.73-.44,1.21-.44,1.44,0,.7.4,1.35,1.07,1.7.4.17.63.22,1.74.22h2.22v1.31h-11.25v-1.31h0Zm21.59-10.32l-5.51-11.85-5.9,11.85h11.41Z" style="fill:#14292e;"></path>
  <path d="m595.95,70.46h4.79v-26.27h-4.79v-1.39h16.52v1.39h-6.42v26.18h8.56c7.13-.09,10.66-3.62,10.58-10.5h1.15v11.98h-30.38v-1.39h-.01Z" style="fill:#14292e;"></path>
  <path d="m305.1,122.45h5.27v-26.27h-5.27v-1.39h15.96v1.39h-5.27v26.27h5.27v1.39h-15.96v-1.39Z" style="fill:#14292e;"></path>
  <path d="m329.41,122.49h1.15c3.13,0,4.04-1.05,4.04-4.53v-21.78h-5.11v-1.39h11.17l20.28,21.52v-16.77c-.04-3.01-.75-3.49-5.11-3.35v-1.39h10.22v1.39c-.32-.04-.48-.04-.75-.04-.91,0-1.98.35-2.34.78-.55.61-.71,1.18-.71,2.79v25.44h-1.03l-25.35-27.32v20.13c0,3.66.79,4.53,4.08,4.53h1.19l.04,1.35h-11.76v-1.35h-.01Z" style="fill:#14292e;"></path>
  <path d="m371.83,112.95h1.07c.28,1.83.63,3.09,1.23,4.27,1.98,3.88,6.69,6.4,12,6.4s8.63-2.4,8.63-5.92c0-1.44-.59-2.88-1.62-3.75-.44-.39-.87-.65-1.27-.83-1.86-.61-4.63-1.05-8.12-1.18-4.48-.22-7.96-1.35-9.94-3.31-1.58-1.57-2.38-3.4-2.38-5.49,0-2.57,1.27-5.14,3.41-6.88,1.78-1.48,4.75-2.31,8.2-2.31,3.68,0,6.42.78,10.18,2.96l2.38-2.13h.95v10.89h-1.03c-.99-6.75-5.43-10.37-12.6-10.37-5.03,0-8.24,2-8.24,5.18,0,.96.36,1.92.91,2.61,1.74,2.09,3.92,2.83,9.43,3.09,4.91.26,8.4,1.39,10.34,3.35,1.66,1.74,2.54,3.83,2.54,6.1,0,2.61-1.19,5.05-3.29,6.75-1.9,1.52-5.19,2.4-8.91,2.4s-5.86-.57-10.38-2.83l-2.42,2-1.07-.13v-10.89.02Z" style="fill:#14292e;"></path>
  <path d="m413.06,122.45h5.67v-26.49c-5.03,0-7.61.7-9.07,2.57-1.58,1.79-2.57,5.01-2.54,8.45h-1.19v-12.2h31.13l-.04,12.2h-1.07c.04-3.31-.95-6.53-2.62-8.41-1.5-1.87-4.08-2.61-9.27-2.61v26.49h5.23v1.39h-16.24v-1.39h0Z" style="fill:#14292e;"></path>
  <path d="m445.19,122.45h5.27v-26.27h-5.27v-1.39h15.96v1.39h-5.27v26.27h5.27v1.39h-15.96v-1.39Z" style="fill:#14292e;"></path>
  <path d="m476.38,122.45h5.67v-26.49c-5.03,0-7.61.7-9.07,2.57-1.58,1.79-2.57,5.01-2.54,8.45h-1.19v-12.2h31.13l-.04,12.2h-1.07c.04-3.31-.95-6.53-2.62-8.41-1.5-1.87-4.08-2.61-9.27-2.61v26.49h5.23v1.39h-16.24v-1.39h.01Z" style="fill:#14292e;"></path>
  <path d="m508.26,94.78h14.54v1.39h-5.11v17.69c0,2.4.36,4.18,1.15,5.66,1.27,2.35,4.12,3.83,7.41,3.83,3.49,0,6.97-1.57,8.56-3.88,1.19-1.61,1.62-3.35,1.62-6.23v-12.63c0-1.66-.12-2.27-.63-2.96-.67-1-2.14-1.52-4.12-1.52l-.71.04v-1.39h10.58v1.39c-2.69,0-4.16,1.31-4.04,3.66l.04.7v12.68c0,7.19-4.67,11.67-12.2,11.67-3.6,0-7.09-1.09-9.51-3.01-2.54-2-3.61-4.4-3.61-8.1l.04-1.05v-16.55h-4v-1.39h0Z" style="fill:#14292e;"></path>
  <path d="m556.56,122.45h5.66v-26.49c-5.03,0-7.61.7-9.07,2.57-1.58,1.79-2.57,5.01-2.54,8.45h-1.19v-12.2h31.13l-.04,12.2h-1.07c.04-3.31-.95-6.53-2.61-8.41-1.51-1.87-4.08-2.61-9.27-2.61v26.49h5.23v1.39h-16.24v-1.39h.01Z" style="fill:#14292e;"></path>
  <path d="m588.69,122.45h5.27v-26.27h-5.27v-1.39h15.96v1.39h-5.27v26.27h5.27v1.39h-15.96v-1.39Z" style="fill:#14292e;"></path>
  <path d="m637.5,97.7c3.17,2.96,4.99,7.23,4.99,11.63,0,8.84-6.77,15.55-15.69,15.55s-15.29-6.58-15.29-15.6,6.97-15.55,15.73-15.55c4.04,0,7.41,1.31,10.26,3.96h0Zm-20.6,11.24c0,4.75.87,8.15,2.73,10.63,1.94,2.61,4.63,4.09,7.53,4.09,6.18,0,9.9-5.49,9.9-14.68,0-4.49-.83-7.88-2.5-10.24-1.66-2.31-4.36-3.66-7.45-3.66-6.38,0-10.22,5.18-10.22,13.85h0Z" style="fill:#14292e;"></path>
  <path d="m648.36,122.49h1.15c3.13,0,4.04-1.05,4.04-4.53v-21.78h-5.11v-1.39h11.17l20.28,21.52v-16.77c-.04-3.01-.75-3.49-5.11-3.35v-1.39h10.22v1.39c-.32-.04-.48-.04-.75-.04-.91,0-1.98.35-2.34.78-.55.61-.71,1.18-.71,2.79v25.44h-1.03l-25.35-27.32v20.13c0,3.66.79,4.53,4.08,4.53h1.19l.04,1.35h-11.76v-1.35h0Z" style="fill:#14292e;"></path>
  <path d="m308.36,161.38c0-10.15,8.11-18.05,18.69-18.05s18.69,7.9,18.69,18.05-8.11,18.1-18.69,18.1-18.69-7.95-18.69-18.1Zm29.74.01c0-6.41-4.96-10.95-11.08-10.95s-11.08,4.54-11.08,10.95,4.96,10.95,11.08,10.95,11.08-4.54,11.08-10.95Z" style="fill:#14292e;"></path>
  <path d="m354.81,143.99h26.59v6.93h-18.99v6.09l13.08.03v6.72h-13.08v15.02h-7.6v-34.8h0Z" style="fill:#14292e;"></path>
  <path d="m415.22,143.99h7.57l17.65,23.53v-23.53h7.6v34.8h-7.49l-17.69-23.49v23.49h-7.64v-34.8h0Z" style="fill:#14292e;"></path>
  <path d="m477.84,142.49l19.95,36.29h-8.19l-3.52-6.56h-16.61l-3.5,6.56h-8.35l20.22-36.29Zm4.85,23.41l-4.93-9.19-4.9,9.19h9.84-.01Z" style="fill:#14292e;"></path>
  <path d="m497.4,143.99h8.51l10.86,21.63,10.93-21.63h8.35l-19.19,36.29-19.46-36.29h0Z" style="fill:#14292e;"></path>
  <path d="m555.88,142.49l19.95,36.29h-8.19l-3.52-6.56h-16.61l-3.5,6.56h-8.35l20.22-36.29Zm4.85,23.41l-4.93-9.19-4.9,9.19h9.84-.01Z" style="fill:#14292e;"></path>
  <path d="m585.38,143.99h7.64l-.04,27.85h17.61v6.95h-25.21v-34.8h0Z" style="fill:#14292e;"></path>
  <path d="m325.31,198.38l19.95,36.29h-8.19l-3.52-6.56h-16.61l-3.5,6.56h-8.35l20.22-36.29Zm4.85,23.41l-4.93-9.19-4.9,9.19h9.84-.01Z" style="fill:#14292e;"></path>
  <path d="m375.8,234.68l-13.35-14.56v14.56h-7.64v-34.8h16.57c8.06,0,13.14,4.09,13.14,11.08s-4.11,10.36-11.65,10.62l13.1,13.1h-10.17Zm-13.35-19.43h9.54c2.89,0,4.73-1.43,4.73-4.29s-1.84-4.25-4.73-4.25h-9.54v8.54Z" style="fill:#14292e;"></path>
  <path d="m394.59,217.33c0-10.15,8.11-18.11,18.69-18.11,6,0,11.2,2.55,14.58,6.62l-5.87,4.59c-2.03-2.53-5.19-4.06-8.73-4.06-6.12,0-11.08,4.54-11.08,10.95s4.96,10.95,11.08,10.95c3.6,0,6.81-1.58,8.83-4.18l5.95,4.49c-3.38,4.18-8.66,6.81-14.76,6.81-10.58,0-18.69-7.9-18.69-18.05h0Z" style="fill:#14292e;"></path>
  <path d="m439.03,199.89h7.64v13.07h16.47v-13.07h7.64v34.8h-7.64l-.09-14.86h-16.38v14.86h-7.64v-34.8h0Z" style="fill:#14292e;"></path>
  <path d="m485.04,199.89h7.64v34.8h-7.64v-34.8Z" style="fill:#14292e;"></path>
  <path d="m514.01,206.83h-11.06l-.04-6.95h29.67v6.95h-11.05v27.85h-7.52v-27.85Z" style="fill:#14292e;"></path>
  <path d="m542.85,199.89h27.46v6.93h-19.86v6.09l13.94.03v6.72h-13.94v8.07h19.9v6.95h-27.5v-34.8h0Z" style="fill:#14292e;"></path>
  <path d="m579.97,217.33c0-10.15,8.11-18.11,18.69-18.11,6,0,11.2,2.55,14.58,6.62l-5.87,4.59c-2.03-2.53-5.19-4.06-8.73-4.06-6.12,0-11.08,4.54-11.08,10.95s4.96,10.95,11.08,10.95c3.6,0,6.81-1.58,8.83-4.18l5.95,4.49c-3.38,4.18-8.66,6.81-14.76,6.81-10.58,0-18.69-7.9-18.69-18.05h0Z" style="fill:#14292e;"></path>
  <path d="m630.86,206.83h-11.06l-.04-6.95h29.67v6.95h-11.05v27.85h-7.52v-27.85Z" style="fill:#14292e;"></path>
  <path d="m655.69,231.06l4.1-5.93c3.48,2.03,7.71,3.16,11.67,3.15,3.71,0,6.02-1.34,6.16-3.53.13-2.1-1.19-2.87-5.31-3.78l-4.32-.95c-7.78-1.72-10.9-5.26-10.91-10.52-.01-5.79,5.89-10.07,13.55-10.09,5.19,0,10.19,1.58,13.78,3.74l-3.84,5.91c-2.82-1.66-5.85-2.76-9.21-2.77-3.59-.01-6.12,1.22-6.1,3.44.01,1.96,1.5,2.91,4.95,3.66l4.75,1.04c7.47,1.63,10.56,4.81,10.57,10.33.01,6.02-5.77,10.4-14.4,10.41-5.54,0-11.43-1.6-15.43-4.11h0Z" style="fill:#14292e;"></path>
  <path d="m181.77,125.9c.89.06,1.8-.02,2.69-.26-.48-.57-.93-1.18-1.33-1.81-2.28-3.42-3.76-5.13-5.43-6.28-.63-.46-1.89-.65-3.1-.85l-.37-.06c-1.86-.29-3.78-.59-5.02-1.77-.87-.71-1.49-1.74-1.71-2.88l-.12-.59.6-.07c.11-.01.23-.03.37-.05,1.07-.15,3.06-.44,4.75.27h0c1.25.56,2.63.83,4,.79,1.84-.08,3.59-.71,5.06-1.83,1.2-.88,2.11-2.09,2.62-3.46-4.92.75-11.71-.47-16.62-4.97-2.86-2.62-5.08-5.76-6.6-9.33-.09-.21-.17-.41-.24-.61,0-.02,0-.03-.02-.05l-.44-.47-.79-.56c-.09-.05-.13-.08-.18-.11l-1.78-.8-2.47-.75-2.87-.57-2.11-.31-2.23-.24c-1.02-.09-2.14-.17-3.41-.24l-.75-.04h-.71l-1.19-.03c-2.28,4.59-3.52,8.34-3.8,11.47-.14,1.53-.03,3.06.32,4.55l.33-.26c.81-.66,1.26-1.02,1.52-1.19.42-.29.97-.29,1.39,0,.41.27.63.77.53,1.27-.6,3.22-.91,5.29-.82,7.06.06,1.26.4,2.5.97,3.62.15-.2.3-.39.45-.59l.08-.1c1.36-1.75,2.43-3.13,3.3-5.17l.2-.49c.02-.1.06-.18.09-.23.25-.64.36-.95.41-1.08h0l.03-.09c.14-.42.51-.75.95-.84.46-.08.93.09,1.21.45.75.92,1.12,2.16,1.6,3.73.69,2.28,1.54,5.06,3.82,7.88l.47-.47c1.11-1.06,1.68-1.51,1.98-1.7h0c.06-.05.12-.1.19-.14l.13-.07h.06l.09-.03h.58l.16.03.34.19.08.08c.06.06.1.11.14.17l.06.09c.03.06.06.12.08.18.06.17.08.33.06.49v3.05l.03.33v.13c.03.1.04.21.05.31v.06s0,.09.02.13l.02.13.06.38s0,.06.02.09l.02.1c0,.07.03.13.04.19.03.14.05.25.07.35,0,.05.02.08.03.11,0,.04.03.09.04.13l.02.1s.02.09.03.13l.17.57c.02.06.04.12.06.19l.22.61h0s.03.09.05.13l.43.93c.07.14.15.29.23.43.85,1.49,2.03,2.76,3.45,3.7.02-.08.03-.17.05-.25.13-.61.31-1.3.5-1.93.02-.06.05-.11.07-.16.19-.4.53-.68.95-.74h.16c.44,0,.85.23,1.07.61,1.3,2.22,2.95,3.79,4.75,4.89,4.04,2.47,8.79,2.57,11.75,2.31-1.73-1.77-2.95-4.02-3.47-6.45-.08-.42.05-.82.33-1.11.29-.29.69-.42,1.09-.36l.08.03Zm-39.87-28.48c-.47.85-.96,1.72-1.28,2.61h-.2c.02-1.05.33-1.99.55-2.98.26-.96.56-1.91.88-2.85.5-1.98,1.4-3.95,3.28-4.98l.17.11c-.06,2.14-.83,3.82-1.99,5.52l-1.41,2.57h0Zm1.16,15.09h0c-.4-1.22-.43-2.52-.35-3.79.1-1.22.13-2.7.74-3.72-.72,2.02-.35,4.43-.35,6.56.05-.72.14-1.43.27-2.15l.25-1.54c.1-.37.2-1.31.42-1.5-.24.86-.27,2.18-.37,3.08-.04.45-.07.94-.13,1.42.14-.36.28-.71.44-1.07.39-.84.69-1.87,1.09-2.64-.42,1.4-.76,3.03-1.42,4.36.42-.66.87-1.29,1.3-1.94.64-.95,1.1-2.11,1.49-3.12-.5,2.2-1.65,4.61-3.37,6.04h-.01Zm4.56-16.17c-.51,1.9-.95,3.89-1.92,5.63l-.18-.08c.2-.94.27-1.91.33-2.88l.19-2.92c0-1.5.07-3,.83-4.34.24-.46.53-.93.96-1.31l.19.07c.51,2.06.28,3.89-.4,5.84h0Zm4.66-5.39l.2-.02c1.25,2.09,1.42,4.49,1.26,6.84.03,2.01-.05,4.9-.08,6.94l-.2.03c-.72-2.82-1.07-5.7-1.64-8.55-.31-1.76-.13-3.54.46-5.24Zm2.84,25.98v.03h-.04c-.26-.66-.77-1.58-1.08-2.24-.96-2.25-1.93-4.8-1.98-7.21.22,1.65.72,3.24,1.34,4.77.48,1.15,1.02,2.27,1.43,3.45.1.29.2.58.27.88-.12-2.84-1.02-5.75-.88-8.52.08,1.49.41,2.94.68,4.41.19,1.06.49,2.27.43,3.38.12-.53.25-1.05.38-1.58.22-.87.21-1.88.3-2.71.17,1.74.18,3.89-.87,5.32h0c1.48-2.16,2.95-4.39,3.14-7.08h.04c-.09,2.6-1.09,5.49-3.17,7.09h.01Zm9.12,8.69c-.12.73-.03,1.58-.27,2.25h0c-1.28-1.06-2.04-2.62-2.63-4.14-.58-1.53-1.08-3.15-.99-4.8h.04c.1,2.89,1.55,5.58,3.01,8-.38-.73-.67-1.51-.85-2.31-.26-1.12-.55-2.44-.36-3.51,0,2.23,1.08,4.28,1.66,6.33,0-.02,0-.04,0-.06-.42-1.64-.73-3.52-.18-5.07-.16.92-.08,1.85.07,2.76.04.24.09.5.15.76.17-.85.53-1.68.87-2.44-.08.68-.43,1.49-.5,2.22h0Zm2.07-7.59c-3.37-3.37-5.35-7.86-7.13-12.21-.87-2.2-1.81-4.39-2.32-6.7-.53-2.31-.88-4.64-.99-7.03l.19-.06c1.95,3.64,3.15,7.6,4.15,11.58,1.49,4.97,3.07,10.11,6.25,14.29l-.15.14h0Zm-1.09-13.7c-1.62-1.66-3.18-3.45-4.18-5.56-.98-2.1-1.83-4.34-1.76-6.71l.2-.03c.99,2.02,2.16,3.9,3.31,5.77l1.73,2.78c2.8,4.62,7.42,8.65,13.1,8.65v.2c-4.64.65-9.25-1.77-12.4-5.1h0Zm2.43,20.68l.03-.02c2.45,3.58,5.87,6.7,10.23,7.57.77.22,1.61.33,2.43.46-3.94-.92-7.84-2.77-9.67-6.55l.03-.02c2.72,4.8,6.95,5.16,11.5,6.95h0c-6.78-.06-10.93-2.77-14.56-8.39h.01Zm14.34,8.03c.08.11.16.22.23.32h-.01s-.01.02-.01.02h0c-1.9-.74-3.75-1.62-5.47-2.73-1.71-1.08-3.42-2.37-4.39-4.2l.03-.02c1.86,3.04,5.36,4.31,8.33,6.01-.83-.55-1.63-1.15-2.41-1.78-1.2-.99-2.62-2-3.53-3.18,1.51,1.51,3.41,2.66,5.13,3.94-1.81-1.8-3.36-3.92-4.95-5.81,1.25,1.26,2.4,2.61,3.61,3.9.42.43,1.03,1.07,1.66,1.72-.64-.8-1.24-1.63-1.85-2.45-1.02-1.41-2.61-3.45-3.61-4.76,1.21,1.24,2.74,3.22,3.85,4.58.32.39.68.83,1.05,1.3-1.76-2.73-3.31-5.66-5.14-8.26l.03-.02c2.63,3.67,5.19,7.56,7.44,11.42h.01Zm-3.4-7.83l-.03-.03c.79-.89,2.33-1.11,3.39-.59-1.27-.87-2.64-1.73-4.23-1.38v-.04c1.14-.39,2.75-.07,3.84.71-1.15-1.12-2.54-1.96-4.03-2.61v-.03c1.49.56,3.4,1.25,4.42,2.55-1.08-1.87-2.73-3.36-4.42-4.71l.02-.03c1.95,1.4,4.92,3.35,5,5.94h0c-1.34-.23-2.8-.82-3.98.2l.02.02Z" style="fill:#14292e;"></path>
  <path d="m111.57,134.96l.17.26.22-.23c3.34-3.44,4.72-3.95,5.82-4.37.83-.27,1.58-.75,2.17-1.38,1.55-1.55,2.36-3.12,2.47-4.8v-.09l-6.36-9.21-11.73-2.95c-.18-.05-.31-.2-.33-.37v-.93c0-.13,0-.2.02-.23,0-.05.03-.13,0-.21,0-.07.02-.14.03-.21l.09-.54s0-.07.02-.11v-.07s.03-.08.04-.13c0-.04.02-.07.04-.11l.03-.13c.04-.13.08-.27.12-.4v-.07c.03-.07.06-.14.08-.21l.3-.78c.05-.11.1-.22.16-.34l.05-.11c.07-.15.15-.31.21-.44.02-.04.05-.08.06-.1.07-.13.14-.25.21-.38l.51-.93-.65.26c-1.83.74-3.76,1.17-5.72,1.28-3.29.06-5.84-1-6.65-2.09l-.39-.52-.07.8c-.12,1.35-.21,2.25-.21,3.1,0,3.19.91,5.24,2.97,6.65,1.34.85,2.94,1.21,4.5,1.03,1.57-.13,2.78-.25,4.05-.47,2.22-.37,3.69-.61,4.49.02.33.26.52.65.54,1.1.07.47-.06.95-.36,1.3-.54.59-1.55.59-2.81.58-1.85-.09-3.68.17-5.44.79-3.15,1.21-4.98,4.17-6.07,5.94l-.29.49.37.06c1.69.26,3.38.65,5.02,1.16.21.07.34.28.31.48-.04.16-.16.28-.32.33-1.74.6-2.42,1.65-3.14,2.77-.76,1.3-1.81,2.44-3.05,3.29l-.35.24.38.19c1.94.95,3.94,1.42,5.99,1.42,1.82,0,3.67-.37,5.55-1.12,2.03-.82,3.9-1.96,5.55-3.42.09-.08.2-.12.32-.12s.23.05.31.14c.02.02.03.04.04.05.07.11.09.24.06.38-.24,1.2,0,2.42.65,3.45h.02Zm-1.05-4.52c-.27,0-.49.08-.67.25-1.6,1.41-3.42,2.53-5.39,3.32-3.73,1.48-7.35,1.44-10.76-.11,1.15-.86,2.13-1.96,2.85-3.19.7-1.08,1.3-2.01,2.87-2.55.32-.1.56-.36.65-.7.08-.46-.19-.92-.64-1.06-1.54-.48-3.13-.86-4.72-1.12,1.07-1.73,2.82-4.47,5.73-5.58,1.69-.59,3.45-.85,5.25-.75,1.34,0,2.5.01,3.2-.75.4-.47.57-1.1.48-1.68-.02-.56-.29-1.09-.73-1.44-.98-.76-2.53-.51-4.93-.11-1.2.2-2.41.32-3.97.45-1.46.18-2.94-.16-4.17-.95-1.9-1.3-2.75-3.23-2.75-6.23,0-.75.07-1.54.17-2.66,1.15,1.02,3.62,1.92,6.68,1.86,1.79-.1,3.55-.47,5.24-1.07-.02.04-.04.08-.07.12,0,.02-.02.03-.04.07-.08.16-.16.32-.23.48l-.05.11c-.06.12-.11.24-.16.36l-.32.8-.09.27v.06c-.05.13-.09.26-.13.39l-.06.21c-.02.07-.05.16-.06.26,0,.05-.02.09-.02.13l-.07.35v.08l-.02.11c-.02.12-.04.23-.04.34v.06c-.02.12-.03.25-.03.34v.95c.03.4.31.74.71.84l11.55,2.91,6.16,8.91c-.12,1.52-.88,2.96-2.33,4.4-.53.58-1.21,1.01-1.97,1.25-1.13.42-2.54.95-5.79,4.26-.46-.86-.61-1.84-.42-2.8.06-.26.02-.53-.13-.76-.03-.04-.06-.08-.1-.12-.17-.18-.41-.29-.66-.3h-.02Z" style="fill:#14292e;"></path>
  <path d="m156.98,120.14v-.2c0-.14,0-.27-.03-.41v-.06c-.08.08-.16.17-.24.25-.67.7-.91.94-1.09,1.04-.49.33-1.2.25-1.6-.19-3.35-3.55-4.45-7.18-5.26-9.83l-.07-.22c-.02-.07-.04-.14-.06-.2-.91,1.79-2.01,3.44-3.28,4.94-.6.74-1.16,1.51-1.58,2.1-.23.33-.61.52-1.01.52h0c-.41-.01-.79-.21-1.02-.54-1.13-1.55-1.89-3.37-2.19-5.28l-8.83.55-5.25.86-4.01.8c-.99.22-1.84.42-2.55.59,2.77,3.95,10.62,15.12,13.3,18.93,3.28-.2,5.76-1.9,8.59-3.84l.05-.03c3.9-2.68,8.31-5.71,15.9-5.71h1.11c-.07-.2-.14-.4-.2-.6l-.04-.15s0-.05-.02-.07c-.06-.19-.12-.39-.17-.6l-.02-.17c-.06-.23-.1-.45-.15-.69l-.03-.16c-.05-.26-.09-.52-.13-.78v-.14c-.03-.22-.06-.47-.08-.71h-.03Z" style="fill:#14292e;"></path>
  <path d="m35.76,87.26c.79.8,1.53,1.19,2.24,1.19h.15c1.12-.09,1.9-1.16,2.53-2.03.41-.54,2.25-3.65,2.59-4.32l.27-.53c.93-1.83,1.49-2.93,2.48-3.01.91.03,1.83.15,2.72.35-.32.6-.82,1.39-1.44,2.35-.31.48-.64,1.01-.99,1.56-.62,1.01-.39,1.88.08,3.32l.07.2c.08.23.16.47.23.73l.07.25.25-.09c2.12-.73,4.29-1.64,5.57-4.01.31-.77.47-1.59.47-2.41.16-1.95.36-4.39,3.22-4.82,1.11-.11,2.23-.1,3.34.03-.24.33-.44.64-.64.95-.33.51-.64.99-1.07,1.49-.52.52-.95,1.12-1.3,1.8-.42,1.15-.2,2.26.06,3.54.06.31.04.63,0,.97-.03.32-.05.69,0,1.09l.03.26.26-.04c2.28-.37,4.15-.83,5.63-3,1.22-1.78,1.36-3.43,1.5-5.02.04-.69.12-1.38.25-2.05.3-1.38.93-2.84,3.28-3.26,1.39-.29,2.85-.22,4.21.22l.98.32-.73-.73c-.1-.1-.21-.2-.33-.29-.12-.11-.25-.22-.37-.34-4.09-4.31-14.91-3.19-16.32-3.02-.58-.6-3.44-3.4-5.24-4.36-1.73-.93-5.75-.92-10.48,1.32l-.44.21.42.24c1.54.87,2.95,1.95,4.18,3.22-.3.2-.61.38-.91.53-.09.03-2.13.74-4.91,3.23l-.13.12.06.16c1.27,3.25-.27,5.11-1.75,6.91-1.59,1.93-3.09,3.76-.08,6.79v-.02Zm2.35-13.72c2.64-2.33,4.59-3.01,4.64-3.03.43-.22.86-.47,1.25-.74l.24-.17-.2-.21c-1.2-1.28-2.58-2.38-4.08-3.28,4.68-2.09,8.28-1.84,9.6-1.13,1.85.99,4.98,4.11,5.18,4.33l.1.12.15-.03c.11-.02,11.81-1.52,15.98,2.83-1.15-.23-2.33-.22-3.47.02-2.64.47-3.35,2.2-3.67,3.65-.13.7-.22,1.41-.26,2.11-.13,1.52-.27,3.1-1.42,4.78-1.21,1.77-2.61,2.33-5.02,2.74,0-.25,0-.5.03-.73.03-.38.06-.73-.02-1.11-.25-1.26-.45-2.25-.09-3.24.31-.61.72-1.16,1.21-1.66.46-.53.79-1.03,1.12-1.56.26-.4.53-.82.87-1.26l.26-.34-.42-.06c-1.28-.19-2.59-.22-3.89-.08-3.27.5-3.5,3.38-3.66,5.3,0,.77-.15,1.53-.42,2.22-1.04,1.91-2.64,2.81-5.04,3.66-.05-.17-.11-.33-.16-.49l-.06-.19c-.48-1.48-.62-2.11-.13-2.9.35-.55.68-1.07.99-1.56.73-1.13,1.3-2.03,1.61-2.68l.13-.28-.3-.07c-1.02-.26-2.08-.4-3.16-.44-1.3.1-1.94,1.36-2.92,3.28l-.27.53c-.37.72-2.19,3.78-2.55,4.26-.6.82-1.28,1.76-2.17,1.83-.59.05-1.26-.3-1.99-1.04-2.7-2.71-1.46-4.22.11-6.12,1.48-1.79,3.15-3.82,1.89-7.25h.01Z" style="fill:#14292e;"></path>
  <path d="m160.75,44.78c-.17,1.52-.48,2.94-.91,4.28h21.37c.39-1.42.79-2.84,1.17-4.28h-4.22l-.56,3.3h-4.19l-.56-3.3h-3.67l-.56,3.3h-3.63l-.56-3.3h-3.68Z" style="fill:#14292e;"></path>
  <path d="m181.07,49.56h-21.4c-.37,1.05-.81,2.05-1.32,2.99h21.9c.27-1,.55-2,.82-2.99Zm-13.03,2.12h-3.42v-1.51h3.42v1.51Zm8.95,0h-3.42v-1.51h3.42v1.51Z" style="fill:#14292e;"></path>
  <path d="m99.68,53.9c8.62,8.86,7.17,13.47,16.94,21.37.58.58,1.34.93,2.15,1.01h.23l2-.2c2.15-.27,4.32-.47,6.49-.59-.24-.02-.49-.06-.76-.11-12.48-2.3-17.67-12.21-20.53-17.76l-1.01-2.1c.79-.1,1.99-.32,3.5,2.52.97,1.83,5.95,9.24,8.76,10.99s6.48,4.83,14.39,5.63c2.32.23,3.6.39,4.18.5.96-.02,1.88-.03,2.75-.03,2.86,0,5.28.09,7.35.21,3.48.11,6.4.31,8.85.6h.31c6.34,0,6.89-3.17,21.17-22.03h3.42c.08-.29.15-.57.23-.86h-22.04c-4.18,7.21-12.4,10.94-20.64,10.94s-16.08-3.57-20.33-10.94h-21.2l.24.86h3.55Zm38.5,20.51c-18.05,0-24.04-8.61-30.08-18.73.16-.39,2.36-.28,3.32,1.53,1.11,2.09,2.2,3.19,3.27,4.36,5.66,6.17,9.61,7.6,14.32,9.24.83.29-.47.68.78,1.12,5.39,1.88,11.46,1.71,15.09.72,3.63-.99,12.34-3.87,23.07-15.68-5.25,6.28-15.85,17.45-29.77,17.45h0Zm-11.24-6.58c4.81,2.21,14.32,2.29,17.94,1.29,3.63-.99,9.01-1.12,19.74-12.93-5.25,6.28-12.52,14.19-26.44,14.19-14.6,0-21.78-7.26-26.26-14.19-.41-.96,1.59-1.45,2.35-.43,5.02,6.7,8.54,8.11,11.98,10.58.72.52-.52.93.68,1.49h0Zm26.07,7.14c-1.24.41-2.58.61-3.87.45v-.1c8.33-1.01,17.78-12.81,22.62-19.28l.08.06c-4.26,6.29-11.47,16.46-18.84,18.87h0Zm14.19-21.17c2.02-.04,4.24-.18,6.16.22-2.05.27-4.1.26-6.16.17-2.02-.09-4.24,0-6.16-.22,2.05-.07,4.11-.13,6.16-.18h0Zm-51.7,2.3c2.84,3.26,6.21,6.03,10.13,7.71,7.78,3.32,17.14,3.63,24.94.13,3.93-1.76,7.36-4.52,10.19-7.78l.08.06c-2.73,3.36-6.11,6.26-10.06,8.17-7.39,3.48-16.38,3.74-24.04.97-3.6-1.4-6.82-3.7-9.34-6.61-.72-.83-1.37-1.7-1.98-2.6l.08-.06h0Zm-12.69-2.06c1.98-.69,4.09-.67,6.16-.45,2.06.11,4.11.26,6.16.45v.13c-2.05.19-4.1.34-6.16.45-2.07.22-4.18.24-6.16-.45v-.13Z" style="fill:#14292e;"></path>
  <path d="m94.95,49.56l.83,2.99h21.06c-.51-.94-.95-1.94-1.33-2.99h-20.56Zm6.78,2.12h-3.42v-1.51h3.42v1.51Zm8.95,0h-3.42v-1.51h3.42v1.51Z" style="fill:#14292e;"></path>
  <path d="m115.33,49.06c-.44-1.34-.79-2.76-1.01-4.28h-3.31l-.56,3.3h-4.13l-.56-3.3h-3.68l-.56,3.3h-3.6l-.56-3.3h-3.73l1.18,4.28h20.52,0Z" style="fill:#14292e;"></path>
  <path d="m116.39,92.46c0,.1,0,.2-.04.3l-1.67,14.17,2.7-.24,2.12-.32c9.8-1.91,10.77-6.81,10.84-7.29v-.1c.1-.51.51-.92,1.02-1.01h.23l3.78.1c.44-2.93,1.55-6.25,3.38-10.09-20.15,0-22.21,4.06-22.36,4.48Z" style="fill:#14292e;"></path>
  <path d="m32.11,89.42c-.21-.08-.4-.18-.58-.3.16.11.33.21.51.28.02,0,.04,0,.07,0h0Z" style="fill:#14292e;"></path>
  <path d="m16.41,83.38c.2.1.4.19.59.3-.2-.11-.39-.21-.59-.3Z" style="fill:#14292e;"></path>
  <path d="m26.46,87.12c.33-.04.65.16.76.48.04.12,1,2.98,5.45,2.89,1.01-.02,2-.26,2.91-.71h-.4c-1.09,0-2.13-.5-2.81-1.35-3.31-3.93-1.09-6.55,1.26-9.34.97-1.12,1.16-2.6.61-4.49-.36-1.12-.84-2.19-1.43-3.21l-4.49,4.28c-.19.19-.56.42-.81.33-.25-.1-.33-.51-.35-.77,0-.17-.41-4.06-7.56-6.5-.54,1.67-.91,3.39-1.12,5.13-.1,1.22.71,3.21,1.03,3.87.12.25.32.87.13,1.08s-.39.17-.65.09c-1.98-.56-2.67.31-3.17.89-.67.8-.77,3.71-.26,4.1,5.11,3.78,7.54,3.73,10.91,3.26v-.03Zm4.72-13.38c.43-.48.88-1.08,1.44-1.35,0,0,0-.03.01-.04h.04c.85,1.59,1.65,3.92.45,5.46.44-.85.46-1.82.24-2.72-.08-.36-.23-.76-.38-1.15.01.15.03.3.02.43.01.66.02,1.51-.25,2.05.13-.9,0-1.76-.16-2.63-.2.92-.65,1.81-1.06,2.64.11-.62.45-1.37.56-2.05.05-.24.1-.49.15-.75-.34.49-.82.93-1.13,1.41l-.03-.02c.19-.5.53-.93.77-1.37.05-.09.11-.21.17-.34-.63.73-1.47,1.29-2.17,1.95.3-.52.91-1.04,1.32-1.55v.03Zm-3.89,9.71c.64,1.76,1.68,4.05,3.28,5.28-1.45-1.61-2.19-4.87-2.64-6.38h.04c.67,1.92,1.32,3.95,2.51,5.62-.77-1.3-.94-3.11-.74-4.5h.04c-.19,2.35.79,4.91,2.87,6.05.07,0,.15.03.22.04h.17v.04h0c-.51.16-.98.17-1.42.08-2.04-.19-3.71-1.69-4.16-3.83h.04c.61,1.76,1.48,2.57,2.66,3.05-1.5-1.31-2.47-3.86-2.91-5.43h.04s0-.02,0-.02Zm-7.76-8.13c-.29-1.71-.13-3.84.55-5.4h-.02l.02-.03c2.76.17,4.6,2.51,6.1,4.59l-.03.02c-.81-.96-1.73-1.99-2.71-2.77-.64-.49-1.31-.91-2.04-1.24.95.58,1.78,1.42,2,2.42-.33-.69-.86-1.24-1.48-1.67-.16-.11-.36-.23-.57-.36.27.28.52.58.74.91.5.73,1.1,1.66,1.17,2.5-.46-1.46-1.64-2.48-2.58-3.6.16.27.29.56.41.86.23.58.63,1.24.74,1.8-.4-.74-1.04-1.56-1.42-2.38.11.44.2.89.28,1.34.14.8.5,1.66.68,2.39-.41-.73-.72-1.51-.97-2.31,0-.03-.02-.06-.03-.08,0,.49.02.98.09,1.47h-.04c-.19-.62-.28-1.27-.36-1.92-.02-.15-.04-.32-.06-.48-.07.42-.16.83-.24,1.25-.2.87-.22,1.87-.23,2.71v-.02Zm.07,4.23v.04c-1.76-.15-2.69.5-2.97,2.26-.05.19-.1.39-.16.59.31-.54.71-1.04,1.21-1.43.26-.18.56-.29.86-.34v.04c-.57.19-.98.63-1.29,1.13-.17.32-.36.63-.59.91.25-.16.53-.28.81-.38.4-.13,1.27-.64,1.49-.63-.65.48-1.33.94-2.06,1.29.57-.06,1.16,0,1.72.03.91.05,1.63-.21,2.37-.63-1.03.99-2.53,1.03-3.92.92.63.19,1.24.54,1.86.74.91.33,1.91.47,2.87.2-1.29.66-3.07.15-4.37-.41-.1-.04-.2-.09-.29-.14,1.32.69,2.58,1.5,4.01,1.98,1.77.62,3.68.78,5.53.47v.04c-3.78.89-7.63-.49-10.49-2.93-.03,0-.06-.02-.08-.03v-.02h-.02c.17-2.34.72-4.21,3.52-3.69h-.01Z" style="fill:#14292e;"></path>
  <path d="m69.95,75.7c-1.5.27-2.7.56-2.99,1.73.2.41,1.31,1.45,1.65,1.9,2.5,3.37,2.65,6.57,2.81,9.96.03,2.16.3,4.3.82,6.4,1.57,5.75,10.32,10.46,10.41,10.51.11.05.2.14.27.24,3.22,5.41,3.75,9.31,8.75,9.31h1.45c-1.01-.19-1.93-1-2.67-1.96-1.73-2.25-1.48-5.75-1.48-8.08.05-1.31.6-2.54,1.54-3.46,1.07-1.05,2.51-1.38,4.63-1.34,8.21.15,10.38-4.74,10.91-6.64-1.19-.16-2.37-.4-3.52-.74-.36-.11-.57-.5-.46-.86.03-.1.08-.19.15-.26.97-1.04,3.58-4.17,4.01-6.09.38-1.72-.26-4.27-.61-5.45-5.2,1.73-6,3.13-6.17,3.37-.21.28-.47.53-.75.74-.25-.32-.43-.69-.52-1.08-.17-.98-.44-1.94-.81-2.86-5.86,2.92-5.88,5.02-5.91,7.06.02.71-.06,1.42-.24,2.11-.56,1.86-1.73,1.98-2.21,1.94-1.23-.1-2.4-1.44-2.62-2.99-.35-2.55,1.98-6.3,6.24-10.01,2.77-2.43,2.89-4.72,2.72-5.84-1.58.56-4.94.79-5.52.8-.22,0-.43-.08-.56-.25-.13-.16-.18-.36-.14-.56,0-.06,1.04-4.06-.72-6.35-.96-1.32-2.58-1.97-4.19-1.68-.28,1.21-.86,4.84-1.43,8.34-.05.31-.28.76-.6.79-.31.03-.63-.37-.74-.67-.49-1.05-1.21-1.97-2.12-2.69-1.93,4.06-.75,6.21.87,8.39,2.71,3.65,2.17,6.04,1.23,7.4-.33.6-1.01.92-1.68.79-.88-.22-2.13-1.26-2.91-7.77-.04-.37-.12-.73-.24-1.08-.3-1.12-3.46-3.6-6.64-3.04v-.03Zm35.06,6.29s.03-.02.04-.02h0c.03,1.4-.18,3.04-.89,4.2.22-.68.35-1.39.42-2.09.02-.27.04-.62.08-.97-.07.12-.14.24-.22.36l-.79,1.4-.03-.02c.17-.51.35-1.02.55-1.52,0-.02,0-.04.02-.06-.08.06-.17.12-.26.17-.49.34-1.13.52-1.39,1.09-.06-.5.86-1.02,1.21-1.34.19-.15.44-.42.68-.68-.39.23-.84.37-1.26.51-.65.25-1.25.63-1.74,1.15.64-1.2,2.32-1.82,3.57-2.19h0Zm-1.08,13.93c-.09.07-.19.13-.29.19-.41.24-1.14.82-1.52.91l1.33-1.15c.08-.07.17-.16.28-.25-.63.2-1.33.3-1.9.62.23-.34,1.08-.62,1.49-.82.16-.07.35-.16.55-.24-.26.04-.53.06-.8.09-.56.04-1.49.39-1.84.38,1.1-.48,2.46-1.09,3.64-.76,0,0,0-.01.02-.02l.03.02c-1.09,2.25-3.24,3.94-5.55,4.83v-.03c1.83-.8,3.23-2.29,4.56-3.76h0Zm-11.39-21.07c.62-.15,1.33-.4,1.95-.32,0,0,.02-.02.04-.02l.03.02h0c-.24,1.71-1.45,3.35-2.82,4.23.61-.6,1.16-1.26,1.59-1.99.24-.39.41-.84.62-1.27-.08.08-.16.15-.25.22-.27.21-.94.89-1.14.92.35-.41.68-.84,1.03-1.25-.59.27-1.29.37-1.83.5.44-.31.98-.43,1.42-.66.11-.06.27-.16.44-.27-.97.29-2.03.28-3.02.45.54-.27,1.33-.36,1.96-.56h-.02Zm-12.33-1.27c.05.36.33,1.28.26,1.49-.21-.53-.43-1.07-.62-1.61-.04.6-.19,1.22-.11,1.82-.25-.34-.18-1.08-.22-1.54,0-.07,0-.18-.02-.3-.07.42-.16.84-.23,1.27-.15.82.03,1.73.21,2.48-.73-1.45-.69-3.44.05-4.84,0-.03.02-.06.04-.09v-.05h.02v-.02c.51.31.87.76,1.09,1.29.17.4.56,1.24.55,1.59-.33-.64-.67-1.25-1.08-1.82.03.11.05.22.06.33Zm14.61,9.7c.54-.42,1.1-.61,1.67-.98h0s.02,0,.02,0h0c.28.6.36,1.22.5,1.85.11.59.51,1.36.58,1.84-.38-.7-.86-1.51-1.06-2.33-.02.08-.03.17-.05.25-.11.39-.27,1.31-.47,1.54.11-.79.16-1.58.22-2.37,0-.07.03-.14.05-.21-.16.29-.37.56-.6.81-.3.31-.81,1.18-.98,1.26.26-.6.56-1.2.93-1.74-.22.12-.44.22-.65.33-.55.31-1.03.75-1.47,1.23.19-.51.81-1.11,1.3-1.48h0Zm2.77,9.01l.04.03c-.53.85-1.25,1.6-2.14,2.1-2.09,1.23-5.09.82-6.61,2.88-.29.4-.48.84-.69,1.29h-.05c.75-5.23,6.71-2.07,9.45-6.3h0Zm-12.63-26.37v-.1h.02v-.02c2.97.26,3.66,3.33,3.77,5.82h-.04c-.25-1.76-.67-3.76-2.15-4.89-.29-.24-.62-.4-.96-.57.96.7,1.51,1.91,1.87,3-.34-.47-.63-1.18-1.15-1.76-.37-.46-.87-.89-1.2-1.37.23.41.35.85.42,1.31.12.53.25,1.06.44,1.57l-.03.02c-.42-.71-.73-1.49-.95-2.28-.02.63-.12,1.25-.23,1.87-.17.87-.17,1.89-.35,2.7,0-1.74-.12-3.71.52-5.31h.02Zm-2.57,25.78h.05c0,1.07-.03,2.13,0,3.19l.1,1.59c.21,3.25.92,6.56,2.16,9.64-.29-1.21-.48-2.44-.64-3.63-.35-3.34-.4-6.87-.21-10.22.14-2.38.52-5.71.83-8.1h.1c-.48,6-.74,12.25.17,18.19.07.37.42,2.13.48,2.46.04.14.1.38.17.63-.13-2.33.05-4.71.2-6.68l.3-2.53h.05l-.2,2.54c-.15,3.27-.23,6.71.6,9.91.13.35.27.7.41,1.05-.6-2.9-.25-6.31.21-8.62h.05c-.35,2.5-.48,5.54.13,8.25,0-.14-.02-.28-.03-.41-.15-2.37.4-4.79,1.64-6.79l.04.03c-1.64,3.06-1.77,6.86-.42,10.05.15.39.34.76.56,1.11.42.47.87.92,1.33,1.35.07.04.14.09.21.14v.02l-.02.02h0c-.05-.01-.09-.03-.13-.05,0,.02-.04.07-.04.07-1.98-.96-3.37-2.82-4.34-4.77-2.5-4.03-3.6-9.18-3.8-13.65-.09-1.55,0-3.26.06-4.8h-.02Zm-3.37,10.14c-.46-.58-.83-1.23-1.03-1.98-.56-2.13-.3-4.33-.13-6.48-.05,1.08-.11,2.16-.08,3.24,0,2.98.8,4.49,2.43,5.92-1.45-2.47-1.17-5.64-1.04-8.62,0,.97-.02,1.95.03,2.92.08,2.72.48,5.08,2.48,6.81-1.27-2.72-1.38-5.89-.99-8.82-.27,3.24.08,6.79,1.94,9.53,0,0-.1.07-.2.15-.07.1-.14.21-.14.21-.34-.21-.67-.43-.99-.65,0,0-.02-.01-.03-.02-.08-.05-.15-.1-.23-.15-1.29-.86-2.46-1.73-3.45-2.65-3.54-3.19-5.54-7.02-4.72-12.79-.47,4.06.42,7.12,2.24,9.64-.99-1.93-1.32-4.24-.72-7.25-.74,4.33.38,7.13,2.63,9.42.18.17.35.33.54.49-1.62-2.13-2.02-4.63-1.25-8.57-.76,4.76.07,7.35,2.72,9.67v-.02Zm-3.05-21.12h-.04c-.55-2.54-2.86-3.69-5.24-3.86,2.43.48,4.58,2.59,4.88,5.1h-.04c-.66-3.12-3.27-4.73-6.12-4.88,2.45.31,4.75,2.29,5.07,4.77h-.04c-.49-2.57-2.82-3.95-5.18-4.48,1.87.53,3.19,1.96,3.89,3.93h-.03c-.53-1.05-1.21-2.07-2.17-2.76-.71-.54-1.62-.74-2.44-1.04.61.25,1.23.49,1.74.95.72.59,1.4,1.5,1.63,2.35-.46-.81-1.03-1.58-1.81-2.1-.26-.19-.58-.34-.9-.49,1.86,1.64,3.11,4,3.14,6.5h-.04c-.13-1.51-.67-2.96-1.54-4.19-.74-1.09-1.8-2-2.67-2.96-.14-.12-.26-.25-.35-.4h0s0,0-.02,0h0c2.98-1.77,7.75-.02,8.28,3.56h-.01Z" style="fill:#14292e;"></path>
  <path d="m209.45,73.06c2.5.45,3.17,2.08,3.47,3.45.14.69.23,1.39.27,2.1.13,1.55.27,3.17,1.45,4.9,1.37,2,3.01,2.49,5.46,2.89.07-.79-.15-1.44,0-2.08.25-1.26.46-2.32.06-3.4-.32-.63-.74-1.21-1.24-1.71-.82-.94-1.21-1.8-1.99-2.81,1.26-.18,2.55-.21,3.82-.08,3.07.46,3.29,3.11,3.45,5.05,0,.8.16,1.59.45,2.34,1.18,2.15,3.14,3.08,5.42,3.86.1-.33.2-.64.29-.93.47-1.42.67-2.2.11-3.11-1.12-1.83-2.15-3.3-2.59-4.21,1.01-.25,2.04-.4,3.08-.43,1.26.1,1.85,1.48,2.98,3.67.36.71,2.18,3.77,2.57,4.29,1.01,1.36,2.25,3.11,4.55.82,5.5-5.53-4.63-6.56-1.88-13.62-2.81-2.49-4.77-3.17-4.8-3.18-.43-.21-.83-.45-1.22-.72,1.29-1.38,2.78-2.56,4.42-3.49-4.95-2.34-8.8-2.12-10.26-1.32-1.93,1.04-5.19,4.32-5.26,4.4-.12-.03-12-1.6-16.25,2.92-.22.24-.48.43-.7.64,1.4-.45,2.89-.53,4.33-.22v-.02Zm7.71,11.08c.48.37,1.06.63,1.59.9-.61-.47-1.13-1.2-1.25-1.83.26.42.56.79.92,1.1.09.07.19.14.28.21-.26-.65-.29-1.44-.38-2.05.27.47.33,1.02.52,1.48.03.06.06.15.11.24.02-.84.47-1.75.44-2.57.19.54,0,1.33-.03,1.93-.05.65-.06,1.19.07,1.84h-.03c-1.82-.01-3.37-1.67-3.93-3.22.46.75,1.01,1.43,1.69,1.95v.02Zm12.19,1.8c-.1-.25-.17-.51-.23-.78-.07-.38-.52-1.25-.47-1.49.33.64.86,1.36,1.03,2.09,0-.42.01-.83-.02-1.26-.08-.86-.56-1.38-.76-1.94.94,1.02,1.6,2.77.82,4,0,0,0,.02.01.02,0,0-.03.02-.03.03h0c-1.67-.4-3.19-1.78-3.92-3.23.54.67,1.14,1.28,1.82,1.78.36.27.8.5,1.21.74-.07-.09-.13-.18-.19-.27-.18-.29-.79-1.03-.8-1.23.51.52,1.04,1.02,1.53,1.54Zm6.27-19.06h.09s.02-.02.02.03c-.01,0,0,0,0,0t-.02,0h-.01c-.73.6-1.5,1.07-2.28,1.6-.77.51-1.47,1.29-2.13,1.85.87-1.11,1.95-2.34,3.23-3.02-.07.03-.13.05-.18.07-1.39.46-2.72,1.15-3.73,2.26l-.03-.02c.89-1.14,2.15-2.13,3.57-2.56-.6.04-1.21.08-1.8.22-1.09.25-2.06.88-2.82,1.7l-.03-.02c1.16-1.63,3.27-2.4,5.22-2.25-2.68-.35-5.13.5-7.17,2.43l-.03-.03c1.24-1.36,3.1-2.52,4.99-2.79-2.57-.03-5.1.94-6.73,3.06l-.03-.02c1.24-1.84,3.46-3.12,5.72-3.38-2.47-.18-4.92.38-6.55,2.47l-.03-.02c2.35-3.33,7.49-3.57,10.72-1.58h.01Zm-28.04,5.37l-.02-.02-.02-.02h0c.28-.28.62-.49.97-.64,1.28-.69,2.78-.98,4.19-1.28,5.48-.84,11.11.09,16.3,1.91l-.02.05c-4.38-1.39-9.03-2.05-13.61-1.74,4.74.04,9.52,1.15,13.63,3.52l-.02.04c-4.35-2.33-9.33-3.17-14.23-3.07,3.7.24,7.35,1.35,10.57,3.18l-.02.04c-3.65-1.9-7.75-2.78-11.85-2.78,2.2.37,4.32,1.26,5.97,2.74l-.03.04c-2.05-1.64-4.64-2.33-7.23-2.46.07.03.14.06.21.09,1.58.68,2.66,2.15,3.1,3.77l-.05.02c-.8-2.39-3.04-3.88-5.54-3.81-.45,0-.91,0-1.35.09-.33.07-.66.17-.96.34h0Z" style="fill:#14292e;"></path>
  <path d="m235.7,66.9v-.02s-.02,0-.03.02h.03Z" style="fill:#14292e;"></path>
  <path d="m243.2,79.37h.05c2.33,2.77,4.29,5.2,1.15,8.89-.64.8-1.59,1.26-2.61,1.26h-1.48l.97.47c.93.46,1.97.71,3.01.73h.21c4.46,0,5.45-2.93,5.49-3.06.07-.21.27-.33.48-.31,3.46.48,5.94.5,11.09-3.31.21-.16.34-.51.4-1.08.1-1-.07-2.73-.65-3.37l-.06-.07c-.53-.59-1.32-1.48-3.36-.89-.28.08-.32.07-.4-.02-.06-.09.02-.52.17-.8.33-.68,1.15-2.71,1.05-4.01-.21-1.75-.6-3.49-1.13-5.17l-.08-.24-.24.08c-7.36,2.51-7.71,6.54-7.73,6.73,0,.25-.11.51-.2.54-.09.03-.34-.08-.55-.27l-4.72-4.5-.16.27c-.6,1.03-1.09,2.13-1.45,3.27-.58,1.94-.37,3.48.65,4.72l.1.12v.02Zm-.27-4.7c.32-1,.74-1.97,1.25-2.89l4.26,4.06c.1.09.62.55,1.07.38.38-.15.52-.68.52-.99,0-.04.33-3.79,7.15-6.19.49,1.58.83,3.2,1.04,4.82.09,1.17-.71,3.14-1,3.73-.1.2-.43,1-.1,1.36.31.34.67.23.91.16,1.74-.5,2.35.19,2.85.74l.06.07c.42.47.62,1.97.52,2.99-.05.51-.16.7-.2.73-4.99,3.7-7.38,3.68-10.72,3.21-.45-.06-.88.21-1.02.65-.04.11-.92,2.79-5.21,2.71-.6,0-1.19-.11-1.76-.28.88-.17,1.68-.65,2.25-1.37,3.44-4.06,1.06-6.9-1.24-9.65l-.2.15.19-.16-.13-.1c-.83-1.08-.98-2.44-.47-4.14h-.02Z" style="fill:#14292e;"></path>
  <path d="m185.36,78.79c4.19,3.66,6.5,7.32,6.16,9.79-.2,1.44-1.27,2.69-2.39,2.78-.43.04-1.47-.07-1.95-1.75-.17-.67-.25-1.35-.23-2.05,0-2,0-4.27-6.04-7.28l-.24-.12-.1.25c-.38.94-.66,1.91-.83,2.9-.06.28-.18.54-.33.78-.19-.16-.35-.34-.51-.53l-.03-.05c-.86-1.16-2.96-2.31-6.26-3.4l-.25-.08-.07.25c-.39,1.34-1,3.84-.61,5.57.45,2.01,3.15,5.23,4.06,6.2.16.18.15.45-.02.61-.05.05-.11.08-.17.1-1.14.33-2.31.58-3.49.73l-.29.04.08.28c.58,2.1,2.86,6.98,11.16,6.82,2.21-.03,3.49.33,4.45,1.27.89.87,1.41,2.04,1.46,3.28,0,6.39-7.25,8.25-7.32,8.26l-1.7.31,1.72.18c.43.05.87.12,1.3.19.75.12,1.51.25,2.26.25.5,0,1-.06,1.48-.2,4.87-1.48,5.46-2.49,7.96-6.74.25-.43.52-.89.82-1.38.04-.07.1-.13.18-.17h.02s.06-.05.13-.09c2.67-1.55,9.02-5.7,10.36-10.6.52-2.11.79-4.28.83-6.45.16-3.35.32-6.52,2.76-9.82.13-.18.4-.46.68-.76.44-.47.86-.91,1-1.18l.04-.08-.02-.09c-.33-1.3-1.7-1.65-3.19-1.91-3.33-.59-6.58,1.96-6.92,3.21-.12.37-.21.74-.25,1.13-.84,7.09-2.25,7.44-2.7,7.55-.57.11-1.14-.15-1.43-.68-.89-1.3-1.4-3.59,1.22-7.11,1.61-2.16,2.89-4.46.89-8.64l-.14-.29-.25.2c-.93.75-1.68,1.72-2.19,2.83-.08.25-.33.51-.47.5s-.34-.32-.38-.58l-.25-1.59c-.47-2.95-.92-5.73-1.18-6.77l-.04-.16-.16-.03c-1.69-.3-3.42.4-4.42,1.78-1.71,2.2-.94,5.84-.77,6.56.03.11,0,.23-.06.33s-.16.17-.27.19c-.04,0-.08,0-.12,0-.48,0-3.87-.22-5.44-.79l-.29-.1-.04.3c-.18,1.19-.05,3.57,2.81,6.07l-.02-.03Zm-2.35-5.7c1.72.52,4.77.72,5.3.72h0c.09,0,.17,0,.25-.02.24-.06.45-.2.58-.41.13-.21.18-.46.12-.72-.1-.41-.92-4.06.69-6.13.86-1.19,2.33-1.81,3.78-1.61.26,1.12.68,3.77,1.13,6.56l.25,1.58c.05.39.36.96.83,1s.87-.47.98-.81c.42-.92,1.04-1.75,1.8-2.42,1.69,3.75.56,5.77-.98,7.84-2.8,3.77-2.22,6.26-1.25,7.67.38.7,1.17,1.07,1.96.91,1.03-.26,2.31-1.4,3.09-7.98.04-.35.12-.7.23-1.04.29-1.07,3.39-3.38,6.35-2.86,1.54.28,2.49.61,2.77,1.45-.15.23-.54.65-.86.99-.29.31-.57.6-.72.8-2.53,3.42-2.69,6.66-2.86,10.1-.03,2.14-.31,4.27-.81,6.34-1.29,4.72-7.51,8.77-10.12,10.3-.09.05-.14.08-.16.1-.14.08-.26.2-.35.34-.3.5-.57.96-.82,1.39-2.48,4.22-2.99,5.1-7.67,6.52-1.11.34-2.33.14-3.52-.06-.06-.01-.13-.02-.19-.03,2.33-.87,6.61-3.41,6.61-8.43-.05-1.38-.62-2.66-1.61-3.63-1.06-1.04-2.45-1.45-4.8-1.41-7.64.14-9.92-4.08-10.59-6.18,1.1-.16,2.2-.4,3.27-.71.14-.04.27-.11.37-.21.38-.35.4-.94.05-1.32-1.12-1.19-3.55-4.21-3.94-5.97-.34-1.52.15-3.74.53-5.07,2.16.74,4.82,1.85,5.77,3.14l.04.06c.23.3.5.57.81.79l.19.14.15-.19c.28-.35.47-.75.57-1.2.15-.87.38-1.73.7-2.55,5.52,2.81,5.52,4.79,5.52,6.7-.02.73.06,1.47.25,2.19.6,2.1,2.05,2.15,2.48,2.12,1.34-.1,2.62-1.54,2.84-3.21.36-2.64-2-6.46-6.33-10.23-2.45-2.15-2.77-4.16-2.67-5.32v-.03Z" style="fill:#14292e;"></path>
  <path d="m122.71,142.13c.37,1.99,1.04,3.92,1.98,5.72.42.07,1.28.18,2.47.18,3.35,0,9.34-.86,15.68-5.9.79-.62,1.58-1.31,2.37-2.07.13-.13.26-.25.4-.38.27-.25.56-.49.84-.74.74-.64,1.49-1.27,2.28-1.85,3.7-2.68,7.53-4,11.25-4,2.94,0,5.8.84,8.47,2.48h2.57c-.7-1.38-1.49-2.92-2.24-4.23-.84-.76-1.59-1.61-2.25-2.53,0,.11-.05.21-.07.31-.1.45-.16.84-.2,1.18v.63c0,.38-.29.68-.67.69h-.09c-.06,0-.11-.02-.16-.03h-.35l-.06-.03-.06-.03h-.07l-.07-.03-.07-.04-.07-.03-.08-.04-.08-.04-.08-.05-.08-.04-.1-.05-.08-.05-.1-.06-.1-.06-.1-.06-.1-.06-.11-.07-.1-.07-.11-.07-.11-.07-.11-.08-.11-.08-.12-.08-.11-.08-.12-.09-.11-.09-.12-.1-.12-.1-.12-.1-.12-.1-.12-.11-.12-.11-.12-.12-.12-.11-.12-.12-.12-.12-.12-.13-.12-.13s-.08-.08-.12-.13l-.12-.13-.12-.14-.12-.15-.12-.15-.12-.15-.06-.08c-6.48-.67-10.62,1.83-14.98,4.47-3.95,2.4-8.04,4.88-13.89,5.05l-.9.03-.52-.74c-.6-.86-2.23-3.17-4.2-5.97-2.18,2.21-3.43,5.16-3.49,8.25,0,.53,0,1.07.07,1.61.06.53.14,1.05.24,1.58h.02Z" style="fill:#14292e;"></path>
  <path d="m45.51,69.68c-.77-1.18-1.98-2.39-3.35-3.1.13.04.24.09.32.12,1.39.46,2.72,1.15,3.73,2.26l.03-.02c-.88-1.13-2.14-2.12-3.54-2.55.6.04,1.21.06,1.77.21,1.09.25,2.06.88,2.82,1.7l.03-.02c-1.19-1.66-3.21-2.35-5.18-2.25,2.73-.28,4.9.38,7.14,2.43l.03-.03c-1.27-1.38-3.08-2.51-4.96-2.78,2.53-.04,4.97.85,6.7,3.05l.03-.02c-1.27-1.86-3.45-3.12-5.7-3.37,2.43-.19,4.82.32,6.53,2.46l.03-.02c-2.39-3.36-7.39-3.52-10.76-1.6h-.02.01-.04s.01,0,.01,0h0s-.02-.02-.02.03c.01,0,0,0,0,0h.01v-.04s.04.02.05.03c.61.62,1.51,1.07,2.24,1.6.76.55,1.46,1.18,2.1,1.88v.02Zm-4.31-3.52h-.03.03Z" style="fill:#14292e;"></path>
  <path d="m49.52,84.74c-.41.29-.84.52-1.25.79.39-.48.72-1.01,1.07-1.52-.2.05-.79.78-1.05,1.01-.18.16-.35.33-.5.51.11-.3.2-.63.23-.79.14-.49.35-.97.51-1.47-.18.11-.63,1.06-.79,1.37-.12.22-.21.45-.27.69,0-.42-.04-.87.01-1.24.08-.69.42-1.31.79-1.92-1.02.92-1.58,2.71-.87,4.02h0s.02.01.02.01c0,0,.07-.04.1-.05,1.63-.32,2.99-1.76,3.85-3.15-.57.53-1.15,1.3-1.85,1.76v-.02Z" style="fill:#14292e;"></path>
  <path d="m59.84,83.7c-.52.37-1.06.65-1.62.93.24-.19.48-.41.56-.54.24-.28.74-1.01.71-1.31-.28.57-.75.91-1.18,1.28.22-.63.23-1.42.39-2l-.03-.02c-.27.47-.33,1.02-.52,1.48-.04.08-.07.15-.11.23-.04-.84-.47-1.83-.44-2.56-.26,1.17.29,2.53-.04,3.77h.09c1.76.06,3.21-1.66,3.89-3.18-.5.62-1.02,1.45-1.72,1.93h.02Z" style="fill:#14292e;"></path>
  <path d="m48.99,72.02c4.38-1.39,9.03-2.05,13.61-1.74-4.74.04-9.52,1.15-13.63,3.52l.02.04c4.35-2.33,9.33-3.17,14.23-3.07-3.7.24-7.35,1.35-10.57,3.18l.02.04c3.65-1.9,7.75-2.78,11.85-2.78-2.2.37-4.32,1.26-5.97,2.74l.03.04c2.04-1.63,4.62-2.32,7.2-2.46-1.6.69-2.87,2.14-3.28,3.86l.05.02c.56-1.52,1.67-2.85,3.21-3.41,1.47-.47,3.21-.66,4.64.03l.02-.02h0l.02-.02h0c-.23-.27-.53-.46-.86-.59-.51-.27-1.07-.47-1.61-.66-.88-.3-1.79-.49-2.69-.67-5.48-.84-11.11.09-16.3,1.91l.02.05h-.01Z" style="fill:#14292e;"></path>
  <path d="m116.41,20.9c.1.33.39.54.72.54.07,0,.14,0,.21-.03l19.98-5.82v1.39c-2.97.78-7.32,2.23-7.55,2.31-7.89,2.49-11.87,9.02-11.87,19.36,0,7.41,3.33,13.91,8.84,17.49-.38-.97-.44-2.03-.17-3.03.31-1.06,1.23-2.48,3.79-3.22,1.83-.53,4.25-.78,6.96-.73v14.43h2v-14.35c4.42.31,9.36,1.4,13.64,3.37-1.48-4.28-2.29-8.77-2.39-13.3-.26-9.47,2.25-18.92,7.53-28.12-5.62,1.54-12.9,3.68-18.79,5.24v-1.45l24.74-7.21c.4-.12.63-.53.51-.93-.12-.4-.53-.63-.93-.51l-24.32,7.09V1c0-.55-.45-1-1-1s-1,.45-1,1v13l-20.4,5.95c-.4.12-.63.53-.51.93v.02Z" style="fill:#14292e;"></path>
  <path d="m128.82,12.87c2.35-.95,1.64-4.85,7.79-2.91V3.95c-12.96-3.7-9.88,4.33-12.82,3.6-7.35-1.82-9.61-.03-11.69,1.78,6.56-1.64,12.29,5.33,16.72,3.54Z" style="fill:#14292e;"></path>
  <path d="m114.8,89.46l.1-.16.04-.05s.06-.08.08-.12l.04-.06.11-.13.04-.06.17-.18c1.51-1.55,5.12-3.32,13.6-4.1-.06-.63-.16-1.2-.3-1.7-.7.05-1.41.11-2.11.18-2.58.26-5.15.62-7.66,1.26-1.47.43-3.03.85-4.2,1.87l-.07-.07c1.17-1.09,2.73-1.56,4.21-2.04,2.51-.72,5.08-1.17,7.67-1.52.66-.09,1.33-.16,1.99-.23-.66-1.82-1.92-2.83-3.61-3.56-1.22.1-2.46.21-3.73.33-7.89,1.12-8.74,3.19-8.74,5.78,0,2.18,1.46,3.78,2.36,4.55h.01Z" style="fill:#14292e;"></path>
  <path d="m152.99,82.79c-.46-1.27-1.25-2.52-2.15-3.81-.06-.09-.12-.17-.18-.26-1.26-.1-2.75-.22-4.44-.32-2.25-.08-4.72-.12-7.48-.12-2.94,0-5.56.04-7.88.12.79,1.03,1.36,2.24,1.72,3.61,2.14-.13,4.28-.2,6.42-.22,4.66-.03,9.39.15,13.99,1h0Z" style="fill:#14292e;"></path>
  <path d="m142.4,84.21h1.93l.76.04c1.2.06,2.37.14,3.48.24l.79.08c.51.05,1.02.11,1.5.17l.71.1h.03l.27.04h.16l.42.06.63.1.2.03.11.02c0-.43-.03-.86-.11-1.28-6.78-1.07-13.68-1.42-20.55-1.15.11.53.19,1.09.24,1.67,1.75-.08,3.67-.13,5.77-.13h3.66Z" style="fill:#14292e;"></path>
  <path d="m157.5,86.05l.24.08.18.06.23.08.17.06.22.08.16.06.22.08.14.06.22.09.12.05.24.1.08.04.31.15.28.14.08.04.19.1.1.06.16.09.1.06.14.09.1.06.13.08.09.07.12.08.09.07s.07.05.11.08l.08.06.1.08.08.07.09.08.07.06.08.08.07.06.08.08.06.06.07.08.06.06.07.07.05.06.06.07s.03.04.05.06c.52-.14.99-.42,1.38-.79.95-.93,1.45-2.21,1.38-3.54.06-2.17-.94-4.46-9.87-5.64.75,1.33,1.43,2.92,1.65,4.7.1.03.21.06.31.09,2,.62,3.99,1.41,5.68,2.65l-.06.08c-1.82-.98-3.8-1.6-5.81-2.06-.02,0-.05,0-.07,0,.02.47,0,.95-.04,1.45l.16.05v-.02Z" style="fill:#14292e;"></path>
  <path d="m193.35,99.49c.06-.79.07-1.59.1-2.38h-.05c-.07.79-.11,1.58-.2,2.37-.39,3.44-1.23,7.33-3.29,10.19,1.41-2.61,1.93-6.13,1.76-8.49h-.05c-.02,2.77-.71,6.07-2.32,8.59,1.28-2.43,1.62-5.43.44-7.91l-.05.02c1.63,3.75-.68,9.67-4.46,11.23h.34s.03.08.03.08c.93-.11,1.92-.32,2.77-.76,4.51-2,6.71-8.03,7.49-12.71l.37-2.6h-.05l-.47,2.57c-.58,2.82-1.61,5.85-3.27,8.34.97-1.92,1.54-4.08,1.97-6.13.47-2.12.74-4.48.89-6.65.12-1.16.15-3.8.2-5.01h-.1c-.17,2.27-.49,5.21-.84,7.44-.54,3.07-1.23,6.18-2.59,9.01.83-2.36,1.2-4.99,1.36-7.19h.02Z" style="fill:#14292e;"></path>
  <path d="m174.05,95.23c.11.08.21.15.29.19.49.33.99.64,1.5.94l.02-.03-1.33-1.15c-.09-.08-.18-.17-.26-.25.64.2,1.37.3,1.89.61-.23-.34-1.07-.62-1.49-.82-.18-.09-.36-.17-.54-.24.28.03.57.05.79.08.61.09,1.22.24,1.82.41-1-.58-2.42-1.05-3.66-.82h0c0,.08.06.17.12.26,1,2.11,3.23,3.74,5.39,4.59v-.03c-1.83-.8-3.23-2.28-4.56-3.76v.02Z" style="fill:#14292e;"></path>
  <path d="m172.91,81.17h0l-.03.02s0,.04,0,.06c-.62,1.83-.66,4.13.33,5.89-.27-.89-.56-1.95-.47-2.94.03-.54.12-1.08.17-1.61.03.26.07.51.13.75.16.68.33,1.54.72,2.05-.41-.99-.34-2.09-.51-3.09.09.16.17.3.23.39l.79,1.4c.02-.27-.39-1.16-.52-1.53,0-.02-.02-.04-.02-.06.09.06.17.12.26.17.49.34,1.13.52,1.39,1.09h.04c-.07-.32-.29-.58-.53-.77-.54-.38-.98-.8-1.42-1.25.41.24.94.4,1.28.52.65.25,1.25.63,1.74,1.15-.66-1.25-2.3-1.74-3.58-2.24h0Z" style="fill:#14292e;"></path>
  <path d="m182.95,84.09c0-.31-.51-1.1-.7-1.45-.06-.1-.12-.21-.18-.3.21.12.43.22.64.32.55.31,1.03.75,1.47,1.23-.57-1.24-1.87-1.84-2.98-2.46h-.01l-.02.02s0,.02.01.03c-.32.46-.36,1.25-.51,1.81-.16.61-.38,1.22-.61,1.82l.03.02c.41-.72.86-1.51,1.05-2.34.11.61.34,1.23.5,1.79.08-.2-.14-1.19-.14-1.59,0-.34-.03-.67-.1-.99.03.06.07.13.1.19.48.64,1.01,1.22,1.44,1.9h.01Z" style="fill:#14292e;"></path>
  <path d="m186.35,78.14c-.48-.62-1.18-1.28-1.56-2.02-.24-.44-.44-.89-.66-1.33.43.44.94.82,1.41,1.22-.03-.21-.7-.86-.9-1.15-.03-.04-.06-.08-.09-.12.58.24,1.29.33,1.81.53l.02-.03c-.44-.31-.98-.43-1.42-.66-.14-.08-.27-.16-.41-.25.33.08.67.13.97.17.67.1,1.34.18,2.02.26-.54-.27-1.33-.36-1.96-.56-.66-.19-1.3-.34-1.99-.35h0l-.03.02s.03.07.04.11c.15,1.65,1.46,3.15,2.75,4.15h0Z" style="fill:#14292e;"></path>
  <path d="m192.82,65.59c-1.01.62-1.64,2.03-2,3.1.34-.47.63-1.18,1.15-1.76.41-.46.82-.89,1.2-1.37-.1.17-.18.34-.24.52-.22.79-.32,1.6-.62,2.37.3-.25.55-1.07.73-1.49.12-.28.21-.56.26-.85,0,1.48.5,3.15.53,4.64.13-1.65.06-3.79-.48-5.42h-.04l-.02.02c-2.9.13-3.65,3.34-3.74,5.78h.04c.34-2.54.95-4.43,3.23-5.56v.02Z" style="fill:#14292e;"></path>
  <path d="m198.1,72.48c-.16.6-.24,1.22-.37,1.83.18-.14.44-1.07.59-1.39.02-.06.05-.11.07-.17.05.6.21,1.23.11,1.78.25-.34.18-1.08.22-1.54,0-.09.01-.18.02-.26.08.42.18.84.23,1.24.1.82.06,1.67-.25,2.46.86-1.38.66-3.49-.05-4.97h-.03s-.04.04-.06.06c-.95.5-1.26,1.82-1.6,2.79.19-.13.58-1.09.84-1.43.09-.13.19-.26.28-.39h0Z" style="fill:#14292e;"></path>
  <path d="m207.31,76.29c-2.42.48-4.64,2.63-4.91,5.11h.04c.56-2.98,3.33-4.8,6.2-4.9-2.44.25-4.85,2.32-5.15,4.79h.04c.5-2.51,2.75-3.96,5.12-4.47-1.81.52-3.16,2.03-3.83,3.92h.03c.53-1.04,1.21-2.06,2.17-2.75.75-.53,1.61-.76,2.45-1.06-.62.25-1.24.54-1.76.96-.77.6-1.29,1.45-1.67,2.33.51-.68,1.04-1.6,1.84-2.09.27-.18.58-.33.88-.48-1.84,1.6-3.09,4.05-3.11,6.48h.04c.16-2.97,2.18-5.16,4.19-7.15.14-.11.27-.24.39-.38h0c-2.83-1.86-7.78-.04-8.27,3.52h.04c.54-2.5,2.87-3.71,5.27-3.87v.04Z" style="fill:#14292e;"></path>
  <path d="m195.47,104.68c.07.1.14.21.14.21,1.26-.86,2.55-1.7,3.75-2.67.47-.36.89-.73,1.28-1.12,3.87-3.56,5.38-8.56,5.04-13.79.13,4.46-.82,7.82-2.76,10.61,1.15-2.38,1.45-5.1,1.14-8.05.35,4.92-.78,8-3.27,10.55-.09.08-.18.16-.27.25,1.83-2.68,1.97-6.22,1.63-9.45.06,1.35.1,2.7-.03,4.04-.23,3.1-1.45,5.1-3.34,6.76,1.2-1.52,1.69-3.23,1.76-6.04.06-1.18.04-2.35.03-3.53-.03,1.17-.06,2.35-.16,3.52-.21,3.33-.93,5.03-2.77,6.7,1.67-2.78,1.54-6.55,1.65-9.73-.25,3.13-.22,6.53-1.8,9.32-.33.53-.76.99-1.22,1.41.22-.48.4-.97.57-1.47.87-2.69,1.11-5.56.96-8.37,0,3.66-.52,7.57-2.55,10.69l.2.15h.02Z" style="fill:#14292e;"></path>
  <path d="m191.45,100.02h.05c-.06-1-.42-2.04-1.17-2.8-.75-.76-1.76-1.09-2.68-1.43-1.87-.63-3.63-1.61-4.67-3.35l-.04.02c.9,1.83,2.71,2.99,4.56,3.7,1.9.73,3.37,1.83,3.95,3.86h0Z" style="fill:#14292e;"></path>
  <path d="m252.12,72.95c.96-1.07,2.07-1.85,3.3-2.47-.86.56-1.58,1.39-1.88,2.33.43-.64.8-1.19,1.51-1.66.18-.12.36-.23.55-.34-.91.93-1.6,2.19-1.93,3.38.38-.75.83-1.65,1.45-2.3.39-.43.78-.83,1.15-1.26-.44.85-.78,1.74-1.17,2.61.39-.42.69-1.12,1.04-1.64.16-.24.3-.48.42-.74-.33,1.22-.46,2.56-1,3.72.47-.59.73-1.53,1.01-2.29,0-.02.01-.04.02-.06,0,.5.01.99-.08,1.44.27-.51.29-1.31.39-1.92.02-.15.04-.29.06-.44.19,1.28.63,2.6.44,3.9.3-.78.16-1.86.1-2.74-.06-.92-.26-1.81-.58-2.68h-.02c-2.71.04-4.62,2.52-6.1,4.56l.03.02c.31-.37.96-1.11,1.29-1.46v.04Z" style="fill:#14292e;"></path>
  <path d="m259.86,84.13c.33-.23.8-.63,1.14-.83v-.02h0v-.02s-.02-.02-.03-.03c-.04-2.26-.76-4.2-3.49-3.65v.04c.92-.07,2.02.06,2.53.93.32.56.4,1.23.58,1.86-.16-.26-.35-.5-.52-.71-.37-.49-.91-.91-1.53-1v.04c1,.29,1.29,1.32,1.89,2.05-.03-.02-.05-.04-.08-.06-.73-.36-1.49-.62-2.21-.99.16.26,1,.71,1.34.93.22.15.45.27.68.38-.56-.05-1.18.03-1.7.04-.82.02-1.67-.14-2.35-.66.9,1.04,2.52,1.05,3.94.94-.18.06-.36.13-.54.19-1.33.58-2.75,1.19-4.23.76.8.46,2.04.33,2.96.09.64-.12,1.22-.42,1.8-.7-.52.29-1.02.61-1.56.87-2.43,1.4-5.27,2.15-8.07,1.64v.04c3.25.75,6.78-.14,9.44-2.13h.01Z" style="fill:#14292e;"></path>
  <path d="m243.61,75.43c.1-.4.25-.8.39-1.19-.09.85-.05,1.72.18,2.53.03-.61-.06-1.38.08-2.03.03-.18.07-.37.11-.56.21.91.7,1.82,1.06,2.6-.1-.62-.45-1.37-.56-2.05-.05-.24-.09-.48-.14-.72.35.49.84.93,1.13,1.39.03-.31-.58-1.05-.74-1.38-.05-.1-.1-.2-.15-.3.2.21.42.4.62.57.5.45,1.02.9,1.53,1.34-.3-.52-.91-1.04-1.32-1.55-.44-.53-.88-1.01-1.46-1.4h-.04s-.02.07-.03.11c-.91,1.52-1.53,3.74-.45,5.36-.32-.84-.48-1.82-.21-2.73h0Z" style="fill:#14292e;"></path>
  <path d="m244.18,89.72c-.12.02-.23.03-.35.05h0c.52.2,1.01.22,1.47.11,1.99-.18,3.66-1.73,4.1-3.83h-.04c-.53,1.65-1.45,2.54-2.67,3.06,1.5-1.33,2.53-3.93,2.92-5.44h-.04c-.62,1.69-1.69,4.08-3.32,5.31,1.45-1.62,2.27-4.97,2.68-6.42h-.04c-.58,1.54-1.5,4.71-3.03,6.29,1.22-1.39,1.5-3.39,1.25-5.17h-.04c.16,2.32-.73,4.97-2.92,6.05h.03Z" style="fill:#14292e;"></path>
  <path d="m113.89,130.47l-.03-.02-1.04,1.42c-.08.09-.15.19-.22.28.15-.65.19-1.38.46-1.93-.32.25-.54,1.12-.7,1.55-.07.19-.14.37-.2.56,0-.29,0-.57.02-.8.04-.61.15-1.23.27-1.85-.51,1.04-.85,2.5-.54,3.71h0c.05-.02.1-.05.15-.08.45-.23.91-.85,1.3-1.15.45-.43.88-.87,1.37-1.26.97-.79,2.06-1.42,3.19-1.96-1.81.58-3.45,1.58-4.78,2.94.26-.46.51-.93.74-1.41h0Z" style="fill:#14292e;"></path>
  <path d="m104.36,131.94l-.02-.03c-2.05,1.28-4.41,1.55-6.77,1.72.34-.08.67-.17.98-.25,1.11-.32,2.24-.7,3.15-1.44-1.57.92-3.46,1.16-5.28,1.55.95-.32,1.9-.8,2.79-1.23,1.31-.64,2.61-1.31,3.87-2.04-2.07.94-4.28,1.83-6.41,2.83.48-.33.94-.72,1.37-1.07.89-.73,1.75-1.49,2.57-2.3-1.26.95-2.62,1.92-3.94,2.91,1.14-1.43,1.84-3.39,3.61-4.16-.52,0-1.2.61-1.61.99-1.35,1.33-2.15,3.12-3.56,4.38h0c2.73,1.31,6.08.44,8.85-.47v-.04c-2.62.77-5.31.95-7.99.62,2.84.3,5.99-.39,8.37-1.99l.02.02Z" style="fill:#14292e;"></path>
  <path d="m107.37,113.92s-.1-.02-.15-.03c-.06-.02-.14-.03-.24-.05-.64-.14-1.4-.28-1.97-.43-3.38-.8-3.02-2.63-2.09-5.4h-.05c-.27.75-.65,1.48-.82,2.31-.19.84-.04,1.8.59,2.42.09.09.2.17.31.26-1.67-.58-2.61-1.64-2.1-4.46h-.05c-.15.83-.36,1.69-.2,2.59.24,1.06.98,1.75,1.91,2.19-2.2-.53-3.88-1.7-3.45-4.78-.78,2.78.81,4.39,2.99,5.13-2.73-.4-5.22-1.53-4.88-4.88h-.05c-.2,1.1-.02,2.33.69,3.23.68.93,1.79,1.46,2.86,1.81.19.06.39.11.58.16-1.42-.02-2.84-.18-4.04-.96-1.52-1.08-1.76-3.09-1.81-4.85-.19,1.09.05,2.84.63,3.93.08.18.16.29.28.43.29.41.72.78,1.16,1.01.97.53,2.06.77,3.17.87-4.2.1-6.55-1.22-6.63-6.69-.43,6.35,3.23,7.66,8.92,7.04,1.32-.21,2.81-.35,4.05-.73.1-.02.18-.03.24-.05.05-.01.1-.02.16-.03v-.05h-.01Z" style="fill:#14292e;"></path>
  <path d="m99.57,121.56c-1.61.24-3.08,1.77-3.75,3.27h0v.04c.28.09.55.12.82.16.81.04,1.62.2,2.43.33-.22-.2-1.18-.42-1.57-.56-.24-.08-.49-.12-.74-.13.34-.13.67-.29.91-.37.6-.21,1.24-.31,1.88-.37-.78-.14-1.7-.06-2.53.25.41-.41.77-.92,1.24-1.2-.42.03-.94.56-1.31.83-.07.05-.14.1-.21.15.27-.33.52-.68.79-.98.56-.61,1.24-1.13,2.03-1.41h.01Z" style="fill:#14292e;"></path>
  <path d="m116.71,118.65l.07-.13c-.24-.56-.6-.95-1.04-1.31-.4-.34-.94-.39-1.42-.57-.97-.36-1.95-.68-2.95-.95l-.07.13c.79.66,1.61,1.29,2.46,1.88.86.77,1.76,1.19,2.95.95h0Z" style="fill:#14292e;"></path>
  <path d="m114.64,120.83c.82-.35,1.58-.84,2.34-1.34v-.15c-.95-.29-1.88-.11-2.8.07-2.53.79-4.88,2.12-7.52,2.58v.15c.91.08,1.82-.02,2.72-.12,1.76-.32,3.59-.56,5.27-1.18h0Z" style="fill:#14292e;"></path>
  <path d="m117.62,120.43l-.08-.13c-2.09.57-3.67,2.03-5.16,3.51-1.55,1.35-3.03,2.8-4.8,3.86l.06.14c1.01-.31,1.94-.84,2.85-1.35,2.68-1.71,5.47-3.2,7.13-6.03Z" style="fill:#14292e;"></path>
  <path d="m117.35,124.38c-.06,1.06-.07,2.26-.96,3l.06.14c.62-.16,1.09-.69,1.41-1.22.32-.55.52-1.15.67-1.74.44-1.22.41-2.43-.35-3.54l-.15-.02c-.24.29-.37.59-.48.88-.37.82-.27,1.66-.22,2.52l.02-.02Z" style="fill:#14292e;"></path>
  <path d="m275.35,225.38c-.51-4.38-1.42-12.21-9.54-14.35,5.93-.42,8.31,1.85,10.96,6.64l.87,1.58-.17-1.79c-.36-3.78-3.29-12.89-12.34-14.3,4.61-.58,6.92.46,8.92,2.29l.97.89-.36-1.27c-1.21-4.28-4.94-8.86-15.78-6.5-.59-1.91-2.4-3.26-4.31-4.68-2.03-1.52-4.14-3.09-4.89-5.43l-.23-.71-.43.61c-1.48,2.1.3,4.33,2.18,6.69,1.15,1.44,2.33,2.91,2.85,4.43-7.69-7.05-12.46-6.81-17.98-3.97l-1.48.76,1.66-.05c2.59-.08,8.67.37,12.68,5.81-6.23-4.4-10.85-4.03-13.71-2.86-4.09,1.68-6.17,5.5-6.31,6.74l-.13,1.14.78-.85c.79-.86,3.23-2.01,5.96-1.75,1.85.18,4.47,1.08,6.48,4.35,1.5,2.44,3.25,3.89,5.19,4.31,1.19.25,2.33.08,3.32-.24-1.2,2.95-2.33,5.4-3.44,7.44-4.75-2.53-9.74-2.74-11.02-2.6l-.38.04c-3.28.35-10.96,1.15-10.74,10.78.09,3.81,1.34,6.66,3.73,8.46,2.98,2.26,6.67,2.11,8.37,1.67l.26-.07c1.98-.5,4.68-1.19,8.33-6.33.76,2.9.89,6.41-.26,9.5-1.38,3.71-5.03,8.06-14.61,7.63-7.11-.31-12.31-3.06-15.45-8.17-5.89-9.57-3.05-25.25-.22-31.52,4.15-9.19,13.74-20.17,27.15-20.88l.49-.03-.3-.38c-2.37-2.97-2.74-7.11-.94-10.54,2.35-4.48,7.74-6.87,14.41-6.41l1,.07-.85-.53c-3.23-2.02-5.01-7.24-4.33-12.17,1.12.3,2.24.62,3.35.97.41.13.84-.14.96-.6.12-.47-.13-.96-.55-1.09-.15-.05-.3-.09-.45-.14.13-.55.26-1.09.38-1.64.38-.25.76-.5,1.15-.74-.22-.44-.44-.88-.67-1.32.13-.55.26-1.09.38-1.64.16.05.32.1.47.15.44.14.9-.12,1.02-.58.1-.4-.09-.83-.43-1.03.05-.21.14-.55.26-.88.01,0,.02,0,.04-.02.02.03.04.05.07.07.08.07.17.11.26.14.47.15,1.1-.12,1.56-.71.03-.04.06-.08.08-.13.54-.11,1.09-.18,1.67-.21l1.04-.06-.95-.42c-.44-.2-.92-.41-1.41-.64-.04-.22-.14-.41-.3-.55-.04-.03-.08-.06-.13-.09.07-.43.25-1,.78-1.17.39-.13.76-.06,1.08,0,.46.08.93.17,1.26-.37.19-.31.24-.63.16-.94-.11-.41-.45-.79-1.05-1.17-.57-.36-1.14-.15-1.44.03-.31-1.05-1.48-1.47-1.54-1.48-.08-.03-.16-.05-.24-.08.01.08.02.16.03.24.02.19-.08.34-.21.52-.14.2-.31.44-.35.82-.07.64.25,1.35.42,1.73.02.04.03.08.05.11.02.05,0,.07,0,.07,0,.02-.03.03-.05.05-.19-.26-.74-.9-1.5-1.08-.77-.19-.94-.76-.95-.78-.07-.25-.13-.49-.2-.74-.04.24-.08.49-.13.73-.06.32.09.72.21.97-.24,0-.6.02-.97.12-1.46-1.26-2.67-2.84-3.24-4.9-1.18-4.27.65-9.89,5.45-16.71l.34-.48-.58.09c-3.88.61-10.09.09-11.75-2.99-1.12-2.08-.01-4.97,3.3-8.61l.51-.56-.75.15c-2.85.57-5.81.32-8.81-.33,1.73-.76,2.87-2.62,3.03-4.5.09-.83-.11-1.71-.59-2.43-.59,2.05-2.01,3.86-4.07,4.55-1.46.53-3.09.66-4.63.42.58-.13,1.15-.31,1.69-.57,3.21-1.5,3.53-5.78,1.71-8.5-.16,1.09-.51,2.18-1.24,3.01-3.34,3.77-12.17,1.66-17.83,1.99-8.98-.21-14.5,2.41-15.97,7.61-4.11-.66-7.16-.27-9.07,1.17-1.79,1.34-2.01,3.16-2.08,3.77-1.18.25-2.04.91-2.54,1.97-.85,1.8-1.28,4.65.32,6.74,2.16,2.81,7.15,3.53,14.84,2.14,1.51-.27,2.85.77,3.46,1.85.34.6.33.97.24,1.07-.05.06-.23.08-.56-.05-.76-.31-4.65-1.78-7.02-.76-.7.3-1.18.79-1.45,1.45-.28.71-.09,1.75.5,2.8.58,1.03,1.67,2.21,3.01,2.44,1.63.28,2.74,1.16,2.96,2.37.15.8-.16,1.59-.76,1.95l-.89.53,1.03-.07c2.38-.15,3.35-.89,4.38-1.66,1.15-.87,2.33-1.76,5.71-2.06,1.1-.1,3.14-.02,4.39,1.59.75.96,1.12,2.33,1.14,4.06-.06.09-.1.2-.12.33-.28,0-.56-.01-.84-.01,0,.03,0,.05-.01.08,0,.02-.09.58.21.91.16.17.43.39.65.55-.21-.02-.46-.02-.63.04-.29.12-.75.09-.85.04-.06-.03-.12-.06-.17-.09.01.07.03.13.04.2,0,.01.06.3.32.44-.23.2-.68.69-.61,1.17.08.47.71.6,1.06.64-.11.11-.24.25-.24.38v.13s.08-.03.12-.04c0,0,.13-.05.27.09.04.04.09.07.14.1-.01.05-.03.11-.04.16-1.99.4-3.97.87-5.94,1.43.1-.2.21-.46.25-.72.07-.45.51-.78.51-.78.06-.05.13-.1.19-.14-.06-.04-.13-.09-.19-.13-.02-.01-.3-.2-.63-.28.38-.42,1.06-1.3.76-2.13-.31-.88-1.59-1.01-2.15-1,.12-.25.27-.65.21-.97-.04-.23-.08-.47-.12-.7-.07.24-.13.48-.2.71,0,.02-.17.59-.95.78-.76.19-1.31.82-1.5,1.08-.03-.01-.04-.03-.05-.05,0,0-.01-.02,0-.07.02-.04.03-.08.05-.11.17-.38.5-1.08.42-1.73-.04-.37-.21-.62-.35-.81-.13-.18-.23-.33-.21-.52.01-.08.02-.16.03-.24-.08.03-.16.05-.24.08-.05.02-1.22.43-1.54,1.48-.3-.18-.87-.39-1.44-.03-.6.38-.94.77-1.05,1.17-.09.31-.03.63.16.94.33.54.8.45,1.26.37.32-.06.69-.12,1.08,0,.53.17.72.74.78,1.17-.04.02-.09.05-.13.09-.24.21-.36.54-.32.93.03.36.2.74.45,1.07.26.33.58.57.91.68.24.08.46.09.66.03.09-.03.18-.08.26-.14.03-.03.06-.06.09-.1.13.33.23.7.27.91-.34.2-.53.63-.43,1.03.12.47.57.72,1.02.58.16-.05.32-.1.47-.15.13.55.26,1.09.38,1.64-.23.44-.45.88-.66,1.32.38.24.77.49,1.14.74.13.55.26,1.09.38,1.64-.15.05-.3.09-.45.14-.42.13-.67.63-.55,1.09.12.47.55.73.96.6.88-.28,1.77-.55,2.65-.79-.59,1.28-1.22,2.55-1.88,3.81-12.68,2.1-20.37-2.08-24.73-6.33l-.19-.18.05-17.37h-36.85c-.21.14-.41.27-.62.42-1,.73-1.96,1.53-2.88,2.39-.1.1-.21.19-.31.29l-.02.02-.02.02s-.03.03-.05.04c-7.94,7.57-15.9,8.71-19.95,8.71-1.33,0-2.32-.12-2.92-.21l-1.39-.22-.65-1.24c-1.16-2.22-1.95-4.58-2.35-7.02-.07-.42-.13-.84-.17-1.26-.07-.64-.1-1.29-.09-1.92h-29.92l.05,17.51-.05.05c-4.36,4.24-12.05,8.42-24.73,6.33-.66-1.26-1.29-2.53-1.88-3.81.89.25,1.77.51,2.65.79.41.13.84-.14.96-.6.12-.47-.13-.96-.55-1.09-.15-.05-.3-.09-.45-.14.13-.55.26-1.09.38-1.64.38-.25.76-.5,1.14-.74l-.66-1.32c.13-.55.26-1.09.38-1.64.16.05.32.1.47.15.44.14.9-.12,1.02-.58.1-.4-.09-.83-.43-1.03.05-.21.14-.58.27-.91.03.03.05.07.09.1.08.07.17.11.26.14.19.06.42.06.66-.03.33-.11.65-.35.91-.68.26-.33.42-.71.45-1.07.04-.39-.08-.72-.32-.93-.04-.03-.08-.06-.13-.09.07-.43.25-1,.78-1.17.39-.13.76-.06,1.08,0,.46.08.93.17,1.26-.37.19-.31.24-.63.16-.94-.11-.41-.45-.79-1.05-1.17-.57-.36-1.14-.15-1.44.03-.31-1.05-1.48-1.47-1.54-1.48-.08-.03-.16-.05-.24-.08,0,.08.02.16.03.24.02.19-.08.34-.21.52-.14.2-.31.44-.35.81-.07.64.25,1.35.42,1.73.02.04.03.08.05.11.02.05,0,.07,0,.07,0,.02-.03.03-.05.05-.19-.26-.74-.9-1.5-1.08-.78-.19-.94-.76-.95-.78-.07-.24-.13-.48-.2-.71-.04.23-.08.47-.12.7-.05.32.09.72.21.97-.56,0-1.84.12-2.15,1-.3.83.38,1.71.76,2.13-.33.08-.62.27-.63.28-.06.04-.13.08-.19.13.06.05.13.1.19.14,0,0,.44.33.51.78.04.26.15.52.25.72-1.97-.56-3.95-1.03-5.94-1.43,0-.05-.03-.11-.04-.16.05-.03.1-.06.14-.1.13-.13.26-.09.27-.09.04.01.08.03.12.04v-.13c0-.13-.13-.27-.24-.38.35-.04.98-.17,1.06-.64.08-.48-.38-.97-.61-1.17.26-.14.32-.42.32-.44,0-.07.03-.13.04-.2-.06.03-.12.06-.17.09-.09.05-.56.08-.85-.04-.17-.07-.42-.07-.63-.04.22-.16.49-.38.65-.55.3-.32.21-.89.21-.91,0-.03,0-.05,0-.08-.28,0-.56,0-.83.01-.02-.13-.06-.24-.12-.33.02-1.74.39-3.1,1.14-4.06,1.25-1.61,3.29-1.69,4.39-1.59,3.38.3,4.57,1.2,5.71,2.06,1.03.78,2,1.51,4.38,1.66l1.03.07-.89-.53c-.61-.36-.92-1.15-.76-1.95.23-1.21,1.33-2.09,2.96-2.37,1.33-.23,2.43-1.41,3.01-2.44.59-1.05.78-2.1.5-2.8-.26-.66-.75-1.15-1.45-1.45-2.38-1.02-6.27.45-7.02.76-.33.13-.51.11-.56.05-.09-.1-.1-.47.24-1.07.61-1.08,1.95-2.12,3.46-1.85,7.69,1.4,12.68.68,14.84-2.14,1.6-2.09,1.17-4.94.32-6.74-.5-1.06-1.36-1.73-2.54-1.97-.07-.61-.29-2.43-2.08-3.77-1.91-1.43-4.96-1.82-9.07-1.17-1.47-5.21-7.02-7.83-16.05-7.61-5.54-.38-14.38,1.82-17.75-1.99-.73-.83-1.08-1.92-1.24-3.01-1.82,2.71-1.51,7,1.71,8.5.54.27,1.11.45,1.69.57-1.55.25-3.18.12-4.63-.42-2.07-.69-3.48-2.5-4.07-4.55-.48.72-.67,1.6-.59,2.43.15,1.87,1.29,3.74,3.03,4.5-3,.65-5.96.9-8.81.33l-.75-.15.51.56c3.31,3.64,4.42,6.53,3.3,8.61-1.66,3.08-7.87,3.6-11.75,2.99l-.58-.09.34.48c4.8,6.82,6.63,12.44,5.45,16.71-.57,2.06-1.78,3.64-3.24,4.9-.37-.09-.73-.12-.97-.12.12-.25.27-.66.21-.97-.04-.24-.08-.49-.13-.73-.07.25-.13.49-.2.74,0,.02-.17.59-.95.78-.76.19-1.31.82-1.5,1.08-.03-.01-.05-.03-.05-.05,0,0-.01-.02,0-.07.02-.04.03-.08.05-.11.17-.38.5-1.08.42-1.73-.04-.37-.21-.62-.35-.82-.13-.18-.23-.33-.21-.52.01-.08.02-.16.03-.24-.08.03-.16.05-.24.08-.05.02-1.22.43-1.54,1.48-.3-.18-.87-.39-1.44-.03-.59.38-.93.77-1.05,1.17-.09.31-.03.63.16.94.33.54.8.45,1.26.37.32-.06.69-.12,1.08,0,.53.17.72.74.78,1.17-.05.03-.09.05-.13.09-.16.14-.26.33-.3.55-.49.23-.96.44-1.41.64l-.95.42,1.04.06c.58.03,1.13.1,1.67.21.03.04.05.08.08.13.46.59,1.09.86,1.56.71.09-.03.18-.08.26-.14.03-.02.05-.05.07-.07.01,0,.02,0,.04.02.12.32.21.67.26.88-.34.2-.53.63-.43,1.03.12.47.57.72,1.02.58.16-.05.32-.1.47-.15.13.55.26,1.09.38,1.64-.23.44-.45.88-.67,1.32.38.24.77.49,1.15.74.13.55.26,1.09.38,1.64-.15.05-.3.09-.45.14-.42.13-.67.63-.55,1.09.12.47.55.73.96.6,1.11-.35,2.23-.67,3.35-.97.68,4.94-1.1,10.15-4.33,12.17l-.85.53,1-.07c6.68-.47,12.07,1.93,14.41,6.41,1.8,3.44,1.43,7.57-.94,10.54l-.3.38.49.03c13.41.71,23,11.69,27.15,20.88,2.83,6.27,5.67,21.95-.22,31.52-3.15,5.11-8.35,7.86-15.45,8.17-9.58.42-13.23-3.92-14.61-7.63-1.15-3.09-1.03-6.6-.26-9.5,3.65,5.14,6.35,5.83,8.33,6.33l.26.07c1.71.44,5.39.58,8.37-1.67,2.39-1.81,3.64-4.65,3.73-8.46.22-9.63-7.46-10.43-10.74-10.78l-.38-.04c-1.28-.14-6.27.07-11.02,2.6-1.11-2.04-2.25-4.5-3.44-7.44.99.32,2.13.49,3.32.24,1.95-.41,3.69-1.86,5.19-4.31,2.01-3.27,4.63-4.17,6.48-4.35,2.73-.27,5.18.89,5.96,1.75l.78.85-.13-1.14c-.14-1.24-2.22-5.06-6.31-6.74-2.86-1.17-7.49-1.54-13.71,2.86,4.01-5.43,10.09-5.89,12.68-5.81l1.66.05-1.48-.76c-5.52-2.84-10.29-3.09-17.98,3.97.52-1.52,1.7-3,2.85-4.43,1.88-2.36,3.66-4.58,2.18-6.69l-.43-.61-.23.71c-.76,2.35-2.86,3.92-4.89,5.43-1.91,1.43-3.72,2.78-4.31,4.68-10.84-2.35-14.57,2.22-15.78,6.5l-.36,1.27.97-.89c2-1.83,4.31-2.87,8.92-2.29-9.05,1.4-11.98,10.51-12.34,14.3l-.17,1.79.87-1.58c2.65-4.79,5.03-7.05,10.96-6.64-8.12,2.14-9.03,9.97-9.54,14.35-.15,1.33-.35,2.98-.7,3.07l-1.24.31,1.21.41c.65.22,1.24.32,1.79.32,3.03,0,4.45-3.17,5.72-6.01,1.38-3.09,2.69-6,5.7-5.4,2.81.56,5.02.26,6.59-.89.95-.7,1.56-1.64,1.96-2.61,1.12,2.87,2.28,5.62,3.51,8.33-.14.12-.27.25-.41.38-3.97,3.86-5.7,9.33-5.13,16.25.83,10.03,8.07,19.26,18.46,23.51,3.89,1.59,7.89,2.37,11.9,2.37,7.98,0,15.94-3.11,22.93-9.14,10.59-9.14,16.11-20.32,16.41-33.23.3-13.04-4.86-25.11-9.24-32.95-1.61-2.89-3.85-6.28-6.23-9.86-.48-.73-.98-1.48-1.48-2.24,1.59.3,3.24.47,4.93.47,2.46,0,5-.37,7.55-1.25l.73-.25-.75-.22c-1.34-.4-2.08-.88-2.24-1.46-.26-.93.97-2.25,2.26-3.65.94-1.01,2-2.16,2.73-3.38l.28-.47-.53.09c-3.09.54-6.77,1.04-7.75.17-.2-.17-.28-.39-.26-.69.03-.63.42-.93,1.27-1.6,1.34-1.05,3.8-2.98,7.42-8.43l.1,35.51v.14c.44,9.12,1.85,16.97,4.04,23.82.63,1.98,1.33,3.88,2.09,5.71.78,1.87,1.62,3.66,2.53,5.38,1,1.9,2.07,3.7,3.21,5.43,5.56,8.42,12.68,14.86,20.57,20.4.83.58,1.67,1.16,2.52,1.73.37.25.74.49,1.12.74,3.66,2.39,7.45,4.63,11.3,6.81l1.57.89,1.57-.89c3.49-1.98,6.94-4.01,10.28-6.15.74-.48,1.48-.96,2.21-1.45.81-.54,1.61-1.08,2.4-1.64,7.91-5.55,15.05-12,20.61-20.43,1.13-1.72,2.2-3.52,3.2-5.41.9-1.71,1.75-3.5,2.53-5.37.76-1.82,1.46-3.71,2.09-5.69,2.2-6.87,3.62-14.74,4.05-23.88v-.07l.1-35.79c3.69,5.61,6.2,7.58,7.55,8.64.85.66,1.24.97,1.27,1.6.02.3-.07.52-.26.69-.98.87-4.66.37-7.75-.17l-.53-.09.28.47c.72,1.22,1.79,2.37,2.73,3.38,1.3,1.4,2.52,2.72,2.26,3.65-.16.58-.89,1.06-2.24,1.46l-.75.22.73.25c2.55.88,5.09,1.25,7.55,1.25,1.69,0,3.34-.17,4.93-.47-.5.76-.99,1.51-1.48,2.24-2.37,3.59-4.61,6.98-6.23,9.86-4.38,7.84-9.54,19.91-9.24,32.95.3,12.91,5.82,24.09,16.41,33.23,6.99,6.03,14.96,9.14,22.93,9.14,4,0,8.01-.78,11.9-2.37,10.39-4.25,17.64-13.48,18.46-23.51.57-6.92-1.15-12.39-5.13-16.25-.13-.13-.27-.25-.41-.38,1.23-2.71,2.39-5.47,3.51-8.33.4.97,1.01,1.91,1.96,2.61,1.56,1.15,3.78,1.45,6.59.89,3.01-.6,4.32,2.31,5.7,5.4,1.27,2.84,2.69,6.01,5.72,6.01.54,0,1.13-.1,1.79-.32l1.21-.41-1.24-.31c-.35-.09-.54-1.74-.7-3.07l.06-.03Zm-15.45-76.49c.11.05.23.11.34.16-.14.02-.27.04-.4.07.03-.08.05-.15.06-.22h0Zm-4.29.28h-.09.09Zm-1.1,1.01s.04.11.07.16c-.07-.02-.14-.04-.21-.06.05-.03.1-.07.14-.1h0Zm-237.1-1.13c.11-.05.23-.1.34-.16.01.07.04.15.06.22-.13-.02-.27-.05-.4-.07h0Zm4.63.12h.09-.09Zm1.03,1.17s.04-.1.07-.16c.05.03.1.06.14.1-.07.02-.14.04-.21.06Zm41.24,12.4c-1.14-.2-2.32-.46-3.53-.77-.82-1.34-1.62-2.69-2.39-4.05,1.35.28,2.69.6,4.03.95.6,1.3,1.23,2.59,1.89,3.87h0Zm-23.27-61.78c1.04,4.05,5.78,4.58,9.39,4.44,2.72-.04,5.43-.38,8.14-.41-3.23.32-6.87,1.62-10.7,2.99-.67.24-1.35.48-2.03.72-4.44-.26-6.52-3.83-4.8-7.73h0Zm-3.91,9.02c-1.18-1.26-1.93-3.3-1.32-4.97,1.13,3.14,4.18,4.63,7.33,4.6-1.57.51-3.14.96-4.71,1.31-.49-.23-.94-.55-1.31-.94h0Zm-10.62,30.53c1.19-4.32-.55-9.92-5.19-16.66,4.04.5,10-.18,11.69-3.33,1.17-2.17.2-5.08-2.89-8.64,5.14.79,10.58-.85,15.91-2.72l1.07-.33s-.04,0-.1-.01c.35-.12.69-.25,1.04-.37,4.16-1.49,8.09-2.89,11.46-3.02,6.25-.25,13.97.74,16.07,6.7-2.28.52-4.38,1.56-6.32,2.72-2.2,1.24-3.79,2.64-5.92.46-3.91-3.98-7.71-4.63-12.94-2.85,5.22-1.57,8.89-.85,12.6,3.22,2.28,2.46,4.21,1.11,6.62-.18,1.99-1.1,4.05-2.02,6.23-2.42h0l.23-.03c4.08-.68,7.08-.34,8.91,1.04,1.62,1.22,1.82,2.89,1.89,3.43.02.19.04.36.24.4,1.12.19,1.88.76,2.34,1.73.79,1.68,1.2,4.31-.27,6.22-1.4,1.83-5.02,3.65-14.36,1.95-1.75-.32-3.26.82-3.99,2.09-.4.71-.47,1.32-.18,1.65.16.18.48.34,1.12.08,2-.81,4.94-1.49,6.64-.76.57.24.97.64,1.18,1.17.22.56.04,1.47-.47,2.37-.52.93-1.5,1.99-2.66,2.19-1.85.31-3.11,1.35-3.37,2.77-.13.71.03,1.42.41,1.93-1.7-.23-2.49-.82-3.38-1.49-1.15-.87-2.44-1.85-5.97-2.16-1.21-.11-3.44-.02-4.83,1.78-.75.97-1.16,2.3-1.23,3.97-.04-.02-.07-.03-.11-.04-.06-.14-.12-.28-.18-.42-.09.11-.19.23-.28.34-.26-.01-.69.08-.87.5-.26-.1-.53-.2-.79-.29,0,.02-.02.05-.03.07,0,.02-.24.53-.03.94.11.21.32.52.48.75-.2-.09-.43-.18-.61-.17-.31.02-.74-.17-.82-.24-.05-.05-.1-.1-.14-.15,0,.07,0,.13,0,.2,0,.01,0,.3.2.53-.27.12-.83.43-.87.92-.04.47.53.81.85.97-.14.06-.29.16-.33.28,0,.04-.03.08-.04.13h.13s.14,0,.23.17c.07.13.19.24.34.32-1.02-.15-2.04-.27-3.07-.38.16-1.62.73-3.21,1.26-4.73.81-1.9,1.61-3.84,3-5.4-2.37,1.13-4.23,6.75-4.39,10.12-.82-.08-1.64-.16-2.46-.21.6-3.17,1.65-6.26,3.16-9.11.82-1.54,1.78-3.07,3.3-4l-.02-.05c-1.69.68-2.81,2.29-3.72,3.8-.94,1.77-1.67,3.64-2.2,5.57-.19-.69-.89-1.25-1.26-1.5.44-.32.5-.84.5-.86.01-.12.02-.24.03-.36-.1.07-.2.14-.3.21-.16.11-1,.28-1.55.15-.32-.08-.77,0-1.15.09.35-.35.81-.82,1.07-1.16.48-.66.2-1.63.18-1.67-.01-.05-.03-.09-.04-.14-.51.08-1.02.17-1.53.26-.22-.79-1-1.1-1.47-1.16-.14-.23-.28-.46-.43-.69-.14.23-.29.46-.43.69-.47.06-1.26.37-1.47,1.16-.51-.09-1.02-.18-1.53-.26-.01.05-.03.09-.04.14-.01.04-.3,1.01.19,1.67.25.34.71.81,1.06,1.16-.38-.1-.83-.17-1.15-.09-.55.13-1.39-.04-1.55-.15-.1-.07-.2-.14-.29-.21.01.12.02.24.03.36,0,.03.06.54.5.86-.45.3-1.37,1.06-1.32,1.93.05.85,1.16,1.24,1.77,1.4-.22.16-.47.38-.51.61-.01.08-.03.16-.04.24.08-.02.15-.04.23-.05,0,0,.25-.05.45.23.28.36.76.56,1.33.54.33-.01,1.1-.65,1.64-1.12-.17.44-.33.89-.5,1.33-3.18.07-6.36.33-9.53.8.15-.08.26-.18.34-.32.09-.17.23-.18.23-.17h.13s-.03-.08-.04-.12c-.04-.12-.19-.22-.33-.28.32-.15.89-.49.85-.97-.05-.49-.6-.8-.87-.92.21-.22.2-.51.2-.53v-.2c-.06.05-.11.1-.15.15-.08.08-.51.26-.82.24-.18-.01-.42.08-.61.17.16-.23.38-.53.48-.75.21-.41-.02-.92-.03-.94s-.02-.05-.03-.07c-.25.09-.5.18-.75.28-.19-8.55,2.04-17.2,7.59-26.14l-.13-.08c-1.71,2.76-3.39,5.57-4.68,8.57-2.52,5.49-3.65,11.3-3.71,17.15-.09-.11-.18-.22-.27-.33-.06.14-.12.28-.18.42-.25.08-.64.31-.71.77-.28,0-.56-.01-.84-.01v.08s-.11.58.19.91c.16.17.44.39.65.55-.21-.02-.46-.02-.63.05-.29.12-.75.09-.85.04-.06-.03-.12-.06-.17-.09.01.07.03.13.04.2,0,.01.06.3.32.44-.23.2-.68.69-.6,1.17.08.47.71.6,1.06.64-.12.11-.24.25-.24.38v.1c-.85.02-1.7.04-2.55.08-.67,0-1.34.04-2,.11.04-.03.08-.06.13-.09-.06-.04-.13-.09-.19-.13,0,0-.07-.05-.17-.1,3.29-2.5,5.56-6.34,5.51-10.56,0-4.39-1.83-8.65-4.66-11.96.91.67,2.05,1.18,3.06,1.67,1.31.63,2.61,1.27,3.96,1.82l.02-.05c-.64-.33-1.27-.7-1.9-1.05l-1.89-1.07c-.85-.52-1.73-1-2.64-1.4,3.82.49,9.18-2.28,9.99-5.84h-.1c-.21,1.1-.96,2.03-1.78,2.79-2.63,2.28-6.64,3.79-9.96,2.2,1.74,1.8,3.15,3.93,4.1,6.24,2.6,6.15,1.36,12.45-3.69,16.42.27-.44.48-.98.29-1.51-.11-.32-.35-.54-.64-.69,1.42-1.28,2.6-2.89,3.18-4.96l.04-.04Zm31.96,8.24l-.51-.09c-.04-.19-.09-.38-.13-.57.19.22.45.51.65.66h0Zm-1.89-.87c-.09.17-.18.33-.27.5-.17-.03-.34-.05-.51-.08.23-.08.54-.27.78-.42Zm-7.68-1.61c-.04-.23-.29-.45-.51-.61.41-.11,1.04-.32,1.43-.71-.21.87-.37,1.76-.51,2.64-1.17-.08-2.35-.14-3.52-.16-.16-.44-.33-.89-.5-1.33.53.46,1.3,1.11,1.63,1.12.57.02,1.05-.17,1.33-.54.21-.27.45-.23.46-.23.07.02.15.03.22.05-.01-.08-.02-.15-.03-.23Zm-16.44,2.04c-.17.03-.34.05-.51.08v-.02c-.01-.12-.03-.23-.04-.35.19.11.4.23.57.28h-.02Zm-2.03-.2c-.04.19-.09.38-.13.57-.17.03-.34.06-.51.1.2-.15.45-.44.64-.66h0Zm-1.73.5h-.17s.02,0,.04-.01c0,0,.06-.02.13,0h0Zm-4.8-23.15s-.05-.02-.06-.03c-.02,0-.03-.02-.03-.02h.03l.06.04h0Zm-.56,24.08c.02-.08.05-.16.09-.23.83,0,1.71-.13,2.5-.22.99-.11,1.98-.24,2.97-.36.09.07.21.13.34.15-1.72.34-3.44.74-5.14,1.2-.24-.19-.49-.37-.75-.54h0Zm1.29,6l-.06-.19c7.96-4.75,17.61-4.17,26.41-2.69.77.15,2.84.57,3.59.73.78.2,2.74.72,3.54.93,1.56.44,3.1.97,4.64,1.46l-.06.19c-1.43-.3-3.33-.78-4.73-1.05-4.68-.9-9.57-1.53-14.34-1.56-4.75.07-9.53.58-14.23,1.3-1.58.25-3.13.6-4.77.89h0Zm-3.71,61.07c-1.39,1.02-3.4,1.28-5.99.76-3.6-.72-5.09,2.61-6.53,5.82-1.42,3.16-2.76,6.17-5.98,5.45.33-.61.45-1.69.62-3.16.57-4.91,1.52-13.12,11.37-14.13l2.82-.29-2.79-.45c-7.27-1.18-10.39.61-13.17,4.95,1.13-4.67,4.99-12.24,14.49-11.79l.1-.74c-6.2-1.42-9.31-.74-11.72,1.02,1.51-3.58,5.36-6.81,14.82-4.65l.37.08.08-.37c.4-1.83,2.21-3.18,4.12-4.61,1.89-1.41,3.84-2.87,4.84-4.98.38,1.48-.97,3.16-2.49,5.06-1.5,1.88-3.06,3.83-3.27,5.97l-.1,1.01.73-.71c7.19-6.92,11.72-7.43,16.56-5.36-3.51.22-9.36,1.59-12.84,7.92l-.92,1.68,1.49-1.2c5.38-4.35,10.44-5.74,14.63-4.02,2.85,1.17,4.66,3.51,5.43,5-1.36-.8-3.45-1.36-5.52-1.16-2.02.19-4.88,1.17-7.05,4.7-1.39,2.26-2.97,3.6-4.71,3.97-1.27.27-2.48,0-3.54-.44-.23-.58-.46-1.17-.7-1.79-.47-1.23-2.04-1.7-3.13-1.29-.75.28-1.38,1.05-.9,2.36.29.78.58,1.54.87,2.31-.34,1.14-.92,2.3-1.99,3.09h0Zm2.67-2.72c-.07-.19-.15-.39-.22-.59-.08-.21-.16-.42-.24-.63-.21-.54-.41-1.08-.62-1.63-.31-.83-.09-1.46.61-1.72.17-.06.35-.09.54-.1h.12c.06,0,.12,0,.17.01.69.05,1.4.43,1.66,1.11.17.45.34.88.5,1.3.07.17.14.34.2.52.07.17.13.33.2.49,1.25,3.1,2.43,5.68,3.58,7.82-.84.45-2.02,1.3-2.91,2.02-1.26-2.79-2.44-5.62-3.59-8.58v-.02Zm51.54-33.35c2.37,3.58,4.6,6.96,6.21,9.83,8.37,14.98,18.59,43.42-7.06,65.56-10.36,8.93-22.86,11.37-34.32,6.69-10.22-4.18-17.34-13.24-18.16-23.09-.56-6.77,1.12-12.1,4.98-15.85,4.79-4.66,11.45-5.49,14.01-5.49.32,0,.57.01.75.03l.39.04c3.14.33,10.5,1.11,10.29,10.27-.08,3.65-1.27,6.37-3.53,8.08-2.46,1.86-5.85,2.13-7.95,1.58l-.26-.07c-1.93-.49-4.57-1.16-8.18-6.33.29-1.63,1.29-3.35,2.19-4.39,5.07,6.27,8.49,5.34,9.42,4.9,1.38-.65,2.11-2.18,1.79-3.71-.42-1.95-1.6-3.36-3.34-3.99-2.29-.83-5.22-.15-7.64,1.76-3.04,2.4-5.01,9.89-2.9,15.6,1.44,3.87,5.23,8.39,15.1,7.96,7.28-.32,12.62-3.15,15.86-8.41,5.99-9.73,3.12-25.63.25-31.99-4.16-9.21-13.72-20.19-27.11-21.14,2.24-3.09,2.53-7.24.71-10.71-2.34-4.46-7.54-6.94-14.03-6.72,2.95-2.4,4.52-7.45,3.85-12.22.44-.11.87-.23,1.31-.34.71,4.14-.18,8.59-2.99,11.72,2.44-.29,4.95.06,7.18,1.14,5.91,2.7,9.52,9.62,5.99,15.62l-.3.53.58.12c3.61.73,7.24,1.32,10.46,3.18,3.21,1.8,6.04,4.21,8.8,6.65l.07-.07c-1.31-1.31-2.64-2.6-4.06-3.79-2.82-2.43-6.04-4.52-9.66-5.55-1.54-.44-3.08-.75-4.61-1.09.81-.31,1.72-.86,2.3-1.21,1.01-.6,2.01-1.22,2.96-1.91,0,0,0-.01-.01-.02v-.02c-1.03.57-2.09,1.08-3.14,1.6-.74.34-1.46.7-2.14,1.14,1.92-3.87,1.28-8.57-1.5-11.93-2.5-3.11-6.33-5.17-10.32-5.38.92-.35,1.83-.83,2.68-1.25,1.39-.67,2.76-1.36,4.14-2.06-.05.02-.11.03-.16.05-.01,0-.02,0-.03.01-1.33.4-2.76,1.13-4.11,1.64-1.08.42-2.13.87-3.13,1.44.87-1.4,1.42-2.97,1.72-4.56.37-1.96.37-3.97.05-5.93-.01-.08-.03-.15-.04-.23,1.33-.3,2.66-.56,3.99-.79,1.88,7.16,5.07,14.05,9.01,20.13,1.73,2.77,3.7,5.39,5.68,7.98,1.04,1.26,2.08,2.52,3.14,3.75l.12-.09c-2.7-4.05-5.41-8.09-7.81-12.33-.8-1.37-1.56-2.73-2.28-4.09.68.32,1.41.53,2.17.58,2.08.24,3.94-.79,5.68-1.73l-.02-.05c-.93.37-1.79.87-2.74,1.13-1.97.65-3.82.23-5.5-.71-.35-.67-.7-1.34-1.03-2.01.21.1.42.19.64.26.45.11,1.08.26,1.54.28,2.1.22,3.97-.83,5.69-1.82l-.02-.07c-.48.16-.92.4-1.38.58-2.71,1.23-4.75.92-7.03-.38-.34-.7-.67-1.4-.98-2.1.33.18.67.34,1.04.46.45.11,1.08.26,1.54.28,2.1.22,3.97-.83,5.69-1.82l-.02-.07c-.48.16-.92.4-1.38.58-2.85,1.29-4.96.88-7.38-.59-.69-1.6-1.33-3.19-1.9-4.79,1.81,1.81,4.57,2.27,7.06,1.28.96-.37,1.79-.96,2.65-1.41l-.03-.09c-.49.15-.93.38-1.39.56-3.12,1.38-5.28.65-8.02-1.07-.23-.14-.45-.28-.68-.43-.27-.8-.53-1.6-.76-2.41,7.69-1.15,15.49-1.01,23.16.41.51,1.26,1.06,2.51,1.64,3.74h0c-3.21-.95-4.43-.09-4.88.79-.97,1.88.84,5.73,3.81,8.08,1.09.87,4.23,3.21,8.54,5.17,4.2,7.35,8.56,14.58,12.35,22.01,2.81,5.55,5.46,11.2,6.63,17.29,1.07,6.1.65,12.33-.93,18.35-1.04,4.04-2.66,7.95-4.75,11.63l.29.19c2.57-3.41,4.58-7.26,6.09-11.31,5.03-14.39,2.54-24.58-4.08-37.8-3.24-6.37-7.14-12.55-11.1-18.63.92.28,1.86.53,2.84.74.59.9,1.18,1.79,1.75,2.65h-.01Zm-40.34,46.42c.08-.08.17-.15.25-.21,2.29-1.8,5.03-2.45,7.16-1.68,1.57.57,2.64,1.85,3.02,3.62.28,1.31-.34,2.61-1.51,3.16-.86.4-4.03,1.24-8.93-4.89h.01Zm-8.9-57.41c-.06.03-.1.04-.1.04l.1-.04h0Zm12.51,17.52l-.06.03.06-.03h0Zm43.58-21.69c-.91.71-1.42,1.11-1.46,1.96-.02.45.12.82.43,1.09.88.78,3.1.8,7.61.05-.68,1.01-1.57,1.97-2.37,2.83-1.45,1.57-2.71,2.93-2.38,4.13.18.64.77,1.15,1.85,1.57-4.14,1.28-8.24,1.2-11.99.44-.12-.02-.23-.05-.35-.07-.11-.02-.23-.05-.35-.07-.99-.23-1.95-.5-2.88-.8-1.61-.53-3.12-1.15-4.5-1.81-3.92-1.87-6.78-4-7.8-4.81-2.75-2.18-4.53-5.81-3.68-7.46.32-.62,1-.94,1.99-.94.64,0,1.41.13,2.31.39h.04c.13.05.26.08.39.12.77.22,1.53.42,2.27.61,1.19.29,2.34.52,3.45.71.1.02.2.04.3.05.11.02.21.04.32.05,11.34,1.78,18.71-1.42,23.29-5.19-3.14,4.51-5.31,6.2-6.53,7.16h.04Zm87.65,12.82c-2.48,6.42-2.31,12.55,1.34,18.47-5.33-3.24-11.16-2.96-16.96-2.19h-.02c-.29-.53-.38-.87-.76-1.68l16.41-14.6h-.01Zm-9.01,30.95c-.42.97-.91,1.91-1.47,2.81-.95.1-4.04-1.14-6.64-1.86-14.49-4.02-26.97-.11-27.39-.37-2.67-1.61-4.78-3.41-5.4-6.46-.02-.1-.11-.18-.21-.19-1.85,0-3.39-1.44-3.53-3.3,0-.13.08-.24.21-.26h14.19c.37,0,.7.24.81.6.23.79.82,2.07,2.17,2.07h14.24c.38,0,.69-.31.69-.69,0-.62.5-1.12,1.12-1.12h5.5c.47,0,.84-.38.85-.85v-.51c0-.51.41-.92.92-.92h9.36c.12,0,.22.1.22.23,0,.03,0,.07-.02.1h-.02l-2.09,3.82c-.34.61-2.95.47-3.42,2.04-.44,1.45,1.4,1.75-.1,4.86h0Zm-23.75-47.81l15.03-4.28c-3.06,4.63-4.42,9.26-.88,14.52-5.2-.81-14.19-2.66-13.27,2.97.02.31,0,.62-.04.93-2.85-1.73-4.29-7.6-.84-14.14h0Zm-3.68,26.03c.34-2.65.98-5.25,1.91-7.75.48-1.23,1.48-2.04,2.99-2.45,4.59-1.24,10.01-2.72,15.61-4.19-4.75,8.57-5.32,16.81-.12,25.08-.13.16-5.61-3.03-9.82-2.59-2.64.28-4.41,1.2-4.42,4.32-3.81-2.13-6.88-7.43-6.14-12.41h-.01Zm.9,11.05c-2.15-1.12-4.02-2.47-6.1-3.09-2.73-.81-5.14-.13-5.29,2.89-3.98-1.26-5.24-7.71-3.03-16.15l12.35-3.34c-2.68,7.17-2.68,13.82,2.07,19.68h0Zm-14.33-29.25l11.49-2.98c-2.81,3.63-3.57,7.47-1.57,11.83-4.7-1.93-10.34-1.86-8.98,2.11-3.41-1.06-3.9-5.09-.93-10.96h-.01Zm-26.03-25.83c-.03,4-.11,8.01-.16,12.01-.07,6.37-.24,19.2-.33,25.56l-.2,12.78h-.15c-.26-16.29-.5-34.88-.7-51.13v-.77h.78c6.17-.01,12.35.12,18.52.38,2.06.08,4.12.19,6.17.32v.15c-7.96.5-15.94.68-23.92.7h-.01Zm20.86,58.23c-5.05.21-8.76-4.23-8.22-9.64,0-.15.13-.28.28-.31l8.04-1.68c.38,2.46.73,4.73,1.12,7.12l-4.05.7-.2.63,3.03,3.18h0Zm40.89,43.05c-1.1,2.93-3.32,3.93-6.97,5.89,1.9-.04,4.14.08,6.33-.34-1.24.9-2.5,1.77-3.78,2.62-.57.14-1.18.28-1.84.43l1.04.09c-3.74,2.45-7.61,4.71-11.5,6.92-3.91-2.22-7.79-4.49-11.55-6.96l1.17-.11c-1.64-.85-3.49-2.1-5.57-2.92-.58-.42-1.17-.85-1.74-1.29,2.23-.48,4.35.28,7.61,1.26-1.93-1.84-4.11-4.42-7.15-5.5,3.08-.52,5.06.91,8.57,3.08l-8.89-10.66,11.07,9.22c-.83-2.62-1.36-6.22-3.6-8.84,2.93,1.1,3.93,3.32,5.89,6.97-.06-2.67.22-6.03-1.17-8.95,2.55,1.82,2.93,4.22,3.88,8.24l1.26-13.83,1.3,14.35c1.27-2.44,3.43-5.36,3.71-8.8,1.3,2.85.43,5.13-.77,9.09,1.84-1.93,4.42-4.11,5.5-7.15.52,3.08-.91,5.05-3.08,8.57l10.66-8.89-9.22,11.07c2.62-.83,6.22-1.37,8.84-3.6v.04Zm28.18-42.26c-1.39,12.72-5.93,25.86-14.43,35.4.83-1.43,1.67-2.86,2.5-4.29h-.12c-8.61,0-12.97-1.45-17.19-2.86-4.02-1.34-7.81-2.6-15.6-2.6s-11.58,1.26-15.6,2.6c-4.22,1.41-8.59,2.86-17.19,2.86h-.4c-1.16-1.63-2.27-3.35-3.3-5.16,1.13.07,2.35.11,3.7.11,7.79,0,11.58-1.26,15.6-2.6,4.22-1.41,8.59-2.86,17.19-2.86s12.97,1.45,17.19,2.86c4.02,1.34,7.81,2.6,15.6,2.6,1.09,0,2.1-.03,3.04-.08.93-1.7,1.83-3.43,2.65-5.19-1.68.16-3.55.25-5.69.25-8.61,0-12.97-1.45-17.19-2.86-4.02-1.34-7.81-2.6-15.6-2.6s-11.58,1.26-15.6,2.6c-4.22,1.41-8.59,2.86-17.19,2.86-2.43,0-4.52-.12-6.36-.32-.78-1.72-1.5-3.53-2.16-5.41,2.28.41,5,.68,8.53.68,7.79,0,11.58-1.26,15.6-2.6,4.22-1.41,8.59-2.86,17.19-2.86s12.97,1.45,17.19,2.86c4.02,1.34,7.81,2.6,15.6,2.6,3.24,0,5.79-.22,7.95-.57,1.82-4.98,3.11-10.23,3.9-15.45l.37-2.55h.1l-.27,2.57h-.01Zm69.89-52.28c-1.71-.46-3.42-.86-5.14-1.2.13-.02.24-.07.34-.15.99.13,1.98.25,2.97.36.83.12,1.65.2,2.48.2.05.08.08.16.11.25-.26.17-.51.34-.75.54h0Zm-4.61-1.47c.08-.02.13,0,.13,0,.01,0,.02,0,.04.01h-.17Zm-7.1-43.59c.61,1.67-.14,3.71-1.32,4.97-.37.39-.82.71-1.31.94-1.56-.35-3.14-.8-4.71-1.31,3.15.03,6.21-1.46,7.33-4.6h.01Zm-14.62.39c3.62.14,8.35-.38,9.39-4.44,1.72,3.9-.36,7.47-4.8,7.73-.68-.24-1.35-.48-2.03-.72-3.77-1.35-7.35-2.62-10.53-2.97,2.64.05,5.34.31,7.97.39h0Zm-8.92,34.04c-1.16-1.5-2.9-1.81-4.15-1.81-.25,0-.48.01-.68.03-3.52.32-4.82,1.3-5.97,2.16-.89.67-1.67,1.26-3.38,1.49.38-.52.55-1.22.41-1.94-.27-1.42-1.53-2.46-3.37-2.77-1.16-.2-2.13-1.26-2.66-2.19-.51-.91-.69-1.81-.47-2.37.21-.53.61-.93,1.18-1.17,1.7-.73,4.64-.04,6.64.76.64.26.97.1,1.12-.08.29-.33.22-.94-.18-1.65-.72-1.27-2.24-2.41-3.99-2.09-9.33,1.69-12.96-.13-14.36-1.95-1.47-1.91-1.06-4.55-.27-6.22.46-.97,1.23-1.54,2.34-1.73.2-.03.22-.21.24-.4.07-.55.26-2.22,1.89-3.43,1.83-1.37,4.83-1.72,8.91-1.04l.23.04h0c2.18.4,4.25,1.32,6.23,2.42,2.4,1.29,4.35,2.64,6.62.18,3.7-4.06,7.39-4.79,12.6-3.22-5.21-1.78-9.03-1.14-12.94,2.85-2.13,2.18-3.72.78-5.92-.46-1.94-1.17-4.04-2.21-6.32-2.72,2.1-5.96,9.82-6.95,16.07-6.7,3.36.13,7.3,1.54,11.46,3.02.35.12.69.25,1.04.37h-.1s.83.27,1.07.34c5.33,1.87,10.77,3.52,15.91,2.72-3.09,3.56-4.06,6.47-2.89,8.64,1.7,3.14,7.65,3.82,11.69,3.33-4.64,6.73-6.39,12.34-5.19,16.66.57,2.07,1.75,3.68,3.18,4.96-.29.15-.52.37-.64.69-.19.53.02,1.07.29,1.51-5.05-3.97-6.29-10.25-3.69-16.41.95-2.32,2.36-4.44,4.1-6.24-2.25,1.12-4.92.68-7.13-.35-1.95-.96-4.09-2.41-4.61-4.65h-.1c.2,1.17.95,2.13,1.78,2.91,2.19,1.94,5.29,3.37,8.26,2.93-.26.11-.52.23-.78.35-1.85.97-3.84,2.22-5.69,3.19.04-.01.09-.03.14-.04.02,0,.04-.01.05-.02,1.18-.37,2.61-1.19,3.79-1.71.65-.31,1.32-.61,1.95-.98.39-.23.78-.48,1.15-.75-2.86,3.31-4.71,7.59-4.71,12.01-.06,4.22,2.21,8.06,5.51,10.56-.1.05-.16.1-.17.1-.06.04-.13.08-.19.13.04.03.07.05.11.08-.67-.06-1.36-.07-1.98-.1-.85-.04-1.7-.06-2.55-.08v-.1c0-.13-.13-.27-.24-.38.35-.04.98-.17,1.06-.64.08-.48-.38-.97-.6-1.17.26-.14.32-.42.32-.44.01-.07.03-.13.04-.2-.06.03-.12.06-.17.09-.09.05-.56.08-.85-.04-.17-.07-.42-.07-.63-.05.22-.16.49-.38.65-.55.3-.32.21-.88.21-.91v-.08c-.29,0-.57,0-.85.01-.06-.46-.46-.69-.71-.77-.06-.14-.12-.28-.18-.42-.08.11-.17.21-.25.32-.03-2.6-.27-5.2-.76-7.79-1.22-6.46-4.14-12.43-7.65-17.92l-.13.08c1.62,2.82,3.2,5.66,4.4,8.67,2.42,5.85,3.35,11.7,3.2,17.47-.25-.09-.5-.19-.75-.28-.01.02-.02.05-.03.07-.01.02-.24.53-.03.94.11.21.32.52.48.75-.2-.09-.43-.18-.61-.17-.31.02-.74-.17-.82-.24-.05-.05-.09-.1-.14-.15v.2s-.02.3.19.53c-.27.12-.83.43-.87.92-.04.47.53.81.85.97-.14.06-.29.16-.33.28-.01.04-.03.08-.04.12h.13s.14,0,.23.17c.07.13.19.24.34.32-2.88-.42-5.78-.67-8.68-.77.01-.11.03-.22.04-.33.1.05.19.08.26.08.57.02,1.05-.17,1.33-.54.21-.27.45-.23.45-.23.08.02.15.04.23.05-.01-.08-.03-.16-.04-.24-.04-.23-.29-.45-.51-.61.61-.16,1.72-.55,1.77-1.4.05-.88-.86-1.63-1.32-1.93.44-.32.5-.83.5-.86.01-.12.02-.24.03-.36-.1.07-.2.14-.29.21-.16.11-1,.28-1.55.15-.32-.08-.77,0-1.15.09.35-.35.81-.82,1.06-1.16.48-.66.2-1.63.19-1.67-.02-.05-.03-.09-.04-.14-.51.08-1.02.17-1.53.26-.21-.79-1-1.1-1.47-1.16-.14-.23-.28-.46-.43-.69-.14.23-.29.46-.43.69-.47.06-1.26.37-1.47,1.16-.51-.09-1.02-.18-1.53-.26-.01.05-.03.09-.04.14-.01.04-.3,1.01.18,1.67.25.34.71.81,1.07,1.16-.38-.1-.83-.17-1.15-.09-.55.13-1.39-.04-1.55-.15-.1-.07-.2-.14-.3-.21.01.12.02.24.03.36,0,.03.06.54.5.86-.45.3-1.37,1.06-1.32,1.93.05.85,1.16,1.24,1.77,1.4-.23.16-.47.38-.51.61-.01.08-.02.15-.03.23.07-.02.15-.03.22-.05,0,0,.25-.05.46.23.28.36.76.56,1.33.54.33-.01,1.1-.65,1.63-1.12-.17.44-.33.89-.5,1.33-3.16.07-6.31.33-9.45.79.15-.08.27-.18.34-.32.09-.17.23-.17.23-.17h.13s-.03-.08-.04-.13c-.04-.12-.19-.22-.33-.28.32-.15.89-.49.85-.97-.05-.49-.6-.8-.87-.92.21-.22.2-.51.2-.53,0-.07,0-.13-.01-.2-.05.05-.1.1-.14.15-.08.08-.51.26-.82.24-.18-.01-.42.08-.61.17.17-.23.38-.53.48-.75.21-.41-.02-.92-.03-.94s-.02-.05-.03-.07c-.27.1-.53.19-.8.29-.17-.42-.61-.51-.87-.5-.09-.11-.18-.23-.28-.34-.06.14-.12.28-.18.42-.03,0-.07.02-.11.04-.07-1.67-.47-3-1.23-3.97l.02.04Zm29.56,9.33c-.17-.03-.34-.06-.51-.1-.04-.19-.09-.38-.13-.57.19.22.45.51.65.66h0Zm-2.11-.74c-.01.12-.03.24-.04.36h0c-.17-.03-.34-.05-.51-.08.16-.06.37-.17.56-.28h0Zm-10.13-1.12c-.03.18-.05.36-.08.54-.14,0-.29-.01-.43-.02-.16-.44-.33-.89-.5-1.33.3.26.68.58,1.01.81h0Zm-13.76,1.39c-.17.03-.34.05-.51.08-.09-.17-.18-.33-.27-.5.24.15.56.34.78.42Zm-2.02-.21c-.04.19-.09.38-.13.57-.17.03-.34.06-.51.09.2-.15.45-.44.65-.66h0Zm-4.28,3.09c4.27-1.1,8.64-1.55,13.01-2.02,2.18-.17,4.36-.34,6.55-.22v.15c-2.17.1-4.32.41-6.46.77-4.23.7-8.57,1.53-12.63,2.81-.37.13-.79.21-1.08.43-.17.14-.27.57-.26,1.04.02.96.29,2.02.61,3.06l-.12.08c-1.81-1.76-3.06-5.39.38-6.1h0Zm-.32,7.7c1.52-.41,3.05-.77,4.59-1.08-.37.74-.75,1.48-1.14,2.22-.31.58-.63,1.16-.95,1.73-1.52.41-2.98.74-4.38.99.66-1.28,1.29-2.57,1.89-3.87h0Zm35.64,64.79c3.86,3.75,5.53,9.08,4.98,15.85-.81,9.85-7.94,18.91-18.16,23.09-11.45,4.69-23.96,2.25-34.32-6.69-25.65-22.13-15.44-50.57-7.06-65.56,1.6-2.87,3.84-6.25,6.21-9.83.57-.86,1.15-1.75,1.75-2.65,1.58-.33,3.1-.78,4.52-1.3-1.2,1.9-2.39,3.8-3.57,5.71-5.99,9.9-12.33,20.03-14.74,31.51-2.92,17.34,5.54,37.08,21.82,44.75,4.02,1.86,8.35,2.98,12.75,3.24,1.46.09,2.92.1,4.37.02v-.2c-8.55-.4-16.98-3.52-23.37-9.25-8.45-7.55-13.62-18.56-14.5-29.82-.82-8.65,2.37-16.95,6.09-24.61,3.68-7.49,8.02-14.63,12.32-21.79,5.15-2.07,8.97-4.91,10.2-5.88,2.97-2.35,4.78-6.21,3.81-8.08-.46-.88-1.68-1.74-4.88-.79l.07.24h0l.07.24c2.28-.67,3.77-.48,4.3.54.86,1.66-.93,5.28-3.68,7.46-1.17.92-4.68,3.54-9.46,5.56-.37.16-.76.31-1.15.46-1.44.55-2.97,1.04-4.57,1.41-.11.03-.23.05-.35.07-.12.02-.23.05-.35.07-3.74.76-7.85.84-11.99-.44,1.08-.42,1.68-.92,1.85-1.57.33-1.2-.93-2.56-2.38-4.13-.8-.86-1.69-1.83-2.37-2.83,4.51.75,6.73.73,7.61-.05.31-.27.45-.64.43-1.09-.04-.86-.55-1.25-1.46-1.96-1.22-.95-3.38-2.64-6.53-7.16,4.58,3.77,11.95,6.97,23.29,5.19.1-.02.21-.04.32-.05.1-.02.2-.03.3-.05,1.39-.24,2.84-.55,4.34-.94.19-.05.38-.1.58-.15.39-.11.79-.22,1.19-.34l-.03-.25h0l-.12-.23c-.25.07-.49.14-.73.2.67-1.28,1.31-2.57,1.93-3.87,4.35-.84,8.75-1.26,13.15-1.27-.54,1.6-1.15,3.17-1.87,4.69l-.85,1.79c-.58,1.02-1.33,2.46-1.98,3.44-1.74,2.81-3.75,5.48-5.81,8.09-4.14,5.28-8.37,10.59-11.77,16.42-9.78,16.71-19.17,41.83-3.09,57.66,4,3.85,9.09,6.29,14.38,7.67l.12-.33c-4.75-2.25-9.29-5.08-12.72-9.04-13.68-15.78-4.21-42.42,5.39-58.19,2.59-4.35,5.68-8.4,8.66-12.52.78.42,1.54.91,2.4,1.22,3.12,1.17,6.31.14,8.11-2.68l-.05-.05c-.44.26-.83.57-1.23.84-3.52,2.36-5.51,2.24-9.16.59,1.14-1.58,2.26-3.16,3.33-4.78.45.26.92.52,1.42.71,3.06,1.22,6.53.24,8.14-2.73l-.07-.07c-.47.24-.86.53-1.28.78-3.26,2.05-5,2.24-8.05,1.07,1.6-2.43,3.08-4.93,4.33-7.57.25-.58.96-2.27,1.19-2.81.34-.89.84-2.44,1.16-3.36.06-.24.14-.52.22-.82,3.2.04,6.4.29,9.58.76-2,6.79-5.16,13.38-8.84,19.66-2.39,4.24-5.11,8.27-7.81,12.33l.12.09c1.06-1.23,2.1-2.49,3.14-3.75,1.98-2.59,3.95-5.21,5.68-7.98,3.93-6.15,7.14-12.99,9.02-20.13,1.33.22,2.66.48,3.98.79-.01.08-.03.15-.04.23-.56,3.54-.14,7.38,1.77,10.47-.97-.57-2.11-.99-3.13-1.42-1.42-.59-2.85-1.17-4.28-1.74.06.04.12.07.17.11.01,0,.03.02.04.02,1.16.71,2.64,1.31,3.9,1.98.89.47,1.81.89,2.75,1.25-4.01.19-7.87,2.25-10.38,5.38-2.78,3.38-3.42,8.06-1.49,11.94-1.66-1.08-3.56-1.74-5.27-2.76v.02l-.03.02c.95.7,1.95,1.31,2.96,1.91.58.35,1.49.91,2.3,1.21-1.53.34-3.08.66-4.61,1.09-3.62,1.02-6.84,3.11-9.66,5.55-1.42,1.2-2.75,2.49-4.06,3.79l.07.07c2.75-2.44,5.59-4.85,8.8-6.65,3.22-1.86,6.85-2.45,10.46-3.18l.58-.12-.3-.53c-3.53-6.01.07-12.9,5.99-15.62,2.23-1.08,4.74-1.43,7.18-1.14-2.81-3.13-3.7-7.58-2.99-11.72.44.1.88.22,1.31.34-.67,4.77.89,9.82,3.85,12.22-6.49-.21-11.69,2.25-14.03,6.72-1.82,3.47-1.53,7.62.71,10.71-13.38.94-22.95,11.93-27.11,21.14-2.87,6.35-5.73,22.26.25,31.99,3.24,5.26,8.57,8.09,15.86,8.41,9.87.43,13.66-4.09,15.1-7.96,2.12-5.7.15-13.2-2.9-15.6-2.42-1.91-5.35-2.58-7.64-1.76-1.74.63-2.93,2.04-3.34,3.99-.33,1.54.4,3.06,1.79,3.71.94.44,4.36,1.37,9.42-4.9.9,1.04,1.91,2.76,2.19,4.39-3.61,5.17-6.25,5.84-8.18,6.33l-.26.07c-2.1.54-5.49.28-7.95-1.58-2.26-1.71-3.45-4.43-3.53-8.08-.21-9.17,7.15-9.94,10.29-10.27l.39-.04c1.63-.18,9.38.22,14.77,5.46v-.02Zm-11.62-36.6h0l.06.03s-.02-.01-.06-.03Zm12.52-17.52l.1.04s-.03-.02-.09-.04h-.01Zm-8.91,57.41c-4.9,6.13-8.07,5.29-8.93,4.89-1.17-.55-1.79-1.85-1.51-3.16.38-1.77,1.45-3.06,3.02-3.62.59-.21,1.24-.32,1.9-.32,1.72,0,3.61.7,5.26,2,.08.07.17.14.25.21h.01Zm11.42-13.66c-.07.19-.15.4-.22.59-1.15,2.96-2.33,5.79-3.59,8.58-.89-.72-2.07-1.57-2.91-2.02,1.15-2.13,2.34-4.71,3.58-7.82.07-.16.13-.33.2-.49.07-.17.14-.34.2-.52.17-.43.33-.86.5-1.3.26-.67.96-1.05,1.66-1.1h.29c.19.01.37.04.54.1.69.26.91.89.61,1.72-.2.55-.41,1.09-.62,1.63-.08.21-.16.42-.24.63h0Zm14.97,9.89c-1.31-2.92-2.66-5.92-5.58-5.92-.3,0-.62.03-.95.1-2.59.52-4.61.26-5.99-.76-1.07-.79-1.65-1.94-1.99-3.09.29-.76.58-1.52.87-2.31.48-1.31-.15-2.08-.9-2.36-1.09-.41-2.66.06-3.13,1.29-.23.62-.47,1.21-.7,1.79-1.06.45-2.27.71-3.54.44-1.74-.37-3.32-1.7-4.71-3.97-2.17-3.53-5.03-4.51-7.05-4.7-2.07-.2-4.16.36-5.52,1.16.77-1.49,2.58-3.84,5.43-5,4.2-1.72,9.26-.33,14.63,4.02l1.49,1.2-.92-1.68c-3.48-6.32-9.33-7.7-12.84-7.92,4.85-2.07,9.38-1.55,16.56,5.36l.73.71-.1-1.01c-.21-2.15-1.77-4.09-3.27-5.97-1.52-1.91-2.87-3.59-2.49-5.07.99,2.12,2.94,3.57,4.84,4.98,1.91,1.43,3.72,2.78,4.12,4.61l.08.37.37-.08c9.46-2.15,13.3,1.07,14.82,4.65-2.41-1.76-5.52-2.44-11.72-1.02l.1.74c9.52-.44,13.36,7.12,14.49,11.79-2.78-4.34-5.89-6.13-13.17-4.95l-2.79.45,2.82.29c9.85,1.02,10.8,9.23,11.37,14.13.17,1.47.3,2.55.62,3.16-3.21.71-4.56-2.29-5.98-5.45v.02Z" style="fill:#14292e;"></path>
  <path d="m216.25,124.38c4.47,2.98,10.4,6.66,13.52,1.15.96-1.84,1.49-4.08,1.56-6.02-.66,3.63-2.17,9.06-6.85,8.29-3.36-.6-6.29-2.59-9.18-4.44-.51-.49-1.09-.91-1.78-1.1l-.72-.13.62.4c.58.35,1.23.77,1.92,1.24.32.32.62.66.9.98,2.27,2.65,3.84,7.14.89,9.88,3.13-2.53,1.55-7.34-.69-10.04-.06-.07-.12-.14-.18-.21h-.01Z" style="fill:#14292e;"></path>
  <path d="m229.04,119.1l-.05-.02c-2.69,5.93-7.1,5.8-12.23,2.9,4.54,3.26,10.63,3.68,12.27-2.88h.01Z" style="fill:#14292e;"></path>
  <path d="m219.22,115.11c1.38-1.42,3.45-1.76,5.28-1.06,1.43.47,2.72,1.42,4.12,2.11,2.52.91,5.31.48,7.85-.07,1.36-.32,2.69-.72,3.98-1.23l-.03-.09c-1.31.44-2.65.79-4.01,1.03-2.61.39-5.54.83-7.96-.44-4.31-2.91-7.69-4.09-11.38.51-2.17,2.25-4.22,2.87-7.15,1.68l-.04.09c.6.34,1.22.68,1.91.9,2.97.97,5.62-1.43,7.42-3.43h0Z" style="fill:#14292e;"></path>
  <path d="m223.74,114.22c-3.77-.98-4.66,2.96-7.97,4.37.45-.23,1.01-.43,1.54-.36.14-.34.47-.58.86-.58.07,0,.14,0,.21.03h0c0-.76.62-1.38,1.38-1.38s1.38.62,1.38,1.38-.62,1.38-1.38,1.38c-.26,0-.5-.08-.71-.2-.06.18-.16.33-.3.44.78.81,1.69,1.38,3.25.46,1.69-1,1.06-2.88.9-3.4-.18-.59-.25-1.51.85-2.15h-.01Z" style="fill:#14292e;"></path>
  <path d="m230.09,129.45c-3.62,2.43-5.62,2.24-9.47.45l-.02.07c.87.44,1.71,1.02,2.66,1.37,3.12,1.17,6.31.14,8.11-2.68l-.05-.05c-.44.26-.83.57-1.23.84h0Z" style="fill:#14292e;"></path>
  <path d="m231.83,179.29l-.05-.05c-.44.26-.83.57-1.23.84-3.62,2.43-5.62,2.24-9.47.45l-.02.07c.87.44,1.71,1.02,2.67,1.37,3.12,1.17,6.31.14,8.11-2.68h-.01Z" style="fill:#14292e;"></path>
  <path d="m228.94,183.71l-.04-.03c-.42.28-.77.62-1.18.9-3.48,2.51-5.82,2.23-9.53.4,3.71,2.53,7.83,2.63,10.75-1.26h0Z" style="fill:#14292e;"></path>
  <path d="m209.4,124.3c-1.93-.24-6.3.49-9.4-.72-3.1-1.22-4.34-3.5-6.47-3.46s-4.02,2.16-1.84,3.89c4.22,3.35,14.56-.62,17.25,5.95.96,2.34-.72,1.76-1.46,1.83,3.21,1.04,5.82,5.03,8.14-.44,2.33-5.46-4.3-6.81-6.23-7.05h0Z" style="fill:#14292e;"></path>
  <path d="m216.21,165.41c-.21.03-.42.06-.62.09-1.43.22-2.82.53-4.22.88-.11.03-.22.05-.33.08-.12.03-.23.06-.35.09-.26.07-.52.14-.79.21-2.71.55-5.47,1.02-8.25.81l-.02.15c2.69.63,5.51.54,8.24.25.08,0,.15-.01.23-.02h.09c.1,0,.2-.02.3-.03,1.39-.14,2.8-.37,4.14-.79.26-.08.52-.17.77-.26.98-.38,1.91-.87,2.75-1.53l-.06-.14c-.63.05-1.26.13-1.87.21h-.01Z" style="fill:#14292e;"></path>
  <path d="m213.57,170.02c-.31.13-.62.25-.93.38-1.54.64-3.06,1.31-4.63,1.98-.09.04-.19.07-.28.1-.13.05-.25.09-.38.14-.13.05-.26.1-.39.14-2.67.93-5.44,1.56-8.27,1.87v.15c2.49.09,4.99-.18,7.44-.7.12-.03.23-.05.35-.08.11-.03.23-.05.34-.08.52-.12,1.04-.25,1.56-.4.98-.24,1.95-.55,2.89-.91.35-.13.69-.28,1.03-.43,1.75-.79,3.37-1.84,4.68-3.27l-.08-.12c-1.14.39-2.24.81-3.33,1.25v-.02Z" style="fill:#14292e;"></path>
  <path d="m244.54,231.45c-.17-1.19-.68-2.11-1.32-2.92,0,1.43.69,5.54-6.5,8.96,3.91-1.23,5.93-3.19,7.82-6.03h0Z" style="fill:#14292e;"></path>
  <path d="m198.51,169.72c1.07-.54,1.18-2.03.76-3.04-.8-1.88-2.88-2.48-4.21-3.77l-.08.06c.62,1.11,1.69,1.88,2.47,2.72.75.74,1.19,1.78.94,2.76-.91,1.46-4.76,1.49-6.35,1.27l-1.05-.19c1.37,1.39,5.25,3.7,4.26,5.92l.09.05c.9-1.9-1.12-3.72-2.54-5.08,1.93.23,3.96.18,5.71-.68v-.02Z" style="fill:#14292e;"></path>
  <path d="m221.24,170.74c.95-.8,1.92-1.69,2.69-2.68.79-.98,1.51-2.12,1.69-3.44.2-1.28-.22-2.67-1.13-3.59,2.38,4.19-1.72,8.24-4.84,10.74l-1.5,1.14.03.04c.93-.62,2.21-1.51,3.06-2.2h0Z" style="fill:#14292e;"></path>
  <path d="m246.43,255.27c1.85-1.76,3.4-3.84,4.6-6.12,3.31-6.66,4.28-15.86.29-22.43l-.14.06c.6,2.46.94,4.92,1.09,7.42.19,3.09.31,6.22-.28,9.28-.36,1.81-.89,3.67-1.64,5.35-.98,2.3-2.37,4.42-4.03,6.34l.11.11h0Z" style="fill:#14292e;"></path>
  <path d="m219.85,249.26c-3.16-1.85-5.72-4.63-7.52-7.81-3.67-6.46-4.37-14.29-3.06-21.54,1.92-11.06,6.45-21.52,11.84-31.32-6.87,11.27-14.52,28.97-12.97,42.5.8,7.5,4.43,15.2,11.2,19.04,5.05,2.89,11.13,3.16,16.64,1.74,1.83-.47,3.61-1.09,5.33-1.84l-.04-.09c-6.87,2.45-14.96,3.22-21.44-.68h.02Z" style="fill:#14292e;"></path>
  <path d="m245.82,202.19c.93.45,1.88,1.08,2.74,1.65l.03-.04c-.83-.61-1.76-1.29-2.67-1.79-3.95-2.33-9.7-2.84-13.13.67,3.86-1.81,8.18.87,11.11,3.41l.03-.04c-1.72-1.74-4.79-4.12-7.63-4.43,3.02-.26,6.22.85,8.77,2.45.53.33,1.04.69,1.57,1.03l.03-.04c-.51-.37-1-.76-1.52-1.12-2.46-1.66-5.9-3.23-8.97-2.82,3.15-.91,6.59-.58,9.63,1.06h.01Z" style="fill:#14292e;"></path>
  <path d="m248.6,197.82c-.6-.51-1.26-.99-1.96-1.4,2.21,1,4.23,2.48,6.12,3.96l.03-.04c-.6-.54-1.85-1.59-2.48-2.09-2.56-1.89-5.67-3.98-9-3.08v.05h.23c3.75.9,7.07,3.28,9.15,6.63l.04-.03c-.97-1.7-2.3-3.44-3.92-4.72,2.74,1.65,5.13,4.07,7.29,6.35l.04-.03c-1.68-1.98-3.51-3.97-5.53-5.6h-.01Z" style="fill:#14292e;"></path>
  <path d="m226.81,231.03c.3,1.15.68,2.36,1.52,3.22l.07-.07c-1.04-2.01-1.09-4.46-.96-6.67.48-8.48,9.75-8.46,16.06-6.62l.03-.1c-2.21-.74-4.52-1.3-6.89-1.4-7.35-.2-11.55,4.3-9.83,11.64Z" style="fill:#14292e;"></path>
  <path d="m236.47,117.81c3.25,5.84,6.85,12.15,6.94,19.09v.08h.04c.09-6.71-2.9-14.15-7.09-19.34.03.06.06.11.1.17h.01Z" style="fill:#14292e;"></path>
  <path d="m235.31,119.58c1.88,3.46,3.87,7.26,4.2,11.33v.09h.05c-.07-3.61-1.63-9-4.31-11.51.02.03.03.06.05.09h.01Z" style="fill:#14292e;"></path>
  <path d="m249.64,207.8c-.57-.49-1.14-.99-1.75-1.45l-.02.02-.02.02c.44.49,1.05,1.21,1.5,1.7.49.59,1.02,1.15,1.77,1.43l.02-.02.02-.02c-.38-.69-.91-1.21-1.52-1.68Z" style="fill:#14292e;"></path>
  <path d="m261.49,206.77h.13v-.08c-1.93-.48-4.3-.41-6,.74.4-.5.64-1.12.84-1.73.31-.78.68-1.97,1.07-2.7l-.03-.02-.03-.02c-.34.37-.58.8-.84,1.22l-.71,1.27c-.29.44-.52.88-.72,1.34-.02-.12-.04-.24-.07-.36-.12-.63-.27-1.24-.54-1.82l-.07.02c.04.61.05,1.23.01,1.83-.1.65-.1,1.16.15,1.81h.04l.02.04c.22-.05.43-.12.64-.18.94-.28,1.79-.66,2.72-1,1.09-.35,2.24-.47,3.38-.38v.02Z" style="fill:#14292e;"></path>
  <path d="m262.33,214.09h-.04c-.55.15-1.09-.08-1.57-.35-.46-.24-.89-.57-1.32-.9-1.02-.79-2.03-1.63-3.39-1.52v.08c1.02.65,1.87,1.33,2.96,1.86,1.01.51,2.24,1.44,3.41.89l-.02-.03-.02-.03h0Z" style="fill:#14292e;"></path>
  <path d="m256.76,200.36h.04c.49-3.16-3.02-5.48-5.19-7.19.03.04.08.09.12.13.7.77,2.13,1.86,3.06,3.11.88,1.19,1.71,2.4,1.94,3.9v.05h.03Z" style="fill:#14292e;"></path>
  <path d="m260.41,201.13c3.18-1.02,6.44-1.08,9.56.2.02,0,.04.02.06.02-.02,0-.03-.02-.05-.02-.06-.04-.13-.07-.2-.1-2.78-1.44-6.71-2.04-9.47-.12,0,0,.02.04.02.05.02,0,.05-.01.07-.02h.01Z" style="fill:#14292e;"></path>
  <path d="m273.45,226.68h0v-.09c.14-4.19-1.01-9.06-4.38-11.91l-.03.04s.02.03.04.04c1.57,1.51,2.57,3.49,3.13,5.56.53,2.05.68,4.16,1.2,6.22,0,.04.02.07.03.11-.02-.02-.03-.04-.05-.06s-.03-.05-.05-.07c-.1-.18-.14-.4-.19-.6-.02-.07-.03-.13-.04-.2-.19-.84-.35-1.68-.56-2.52-.44-1.64-1.13-3.29-2.1-4.73-1.13-1.69-2.64-3.08-4.6-3.78v.04s.02.01.03.02c3.51,1.48,5.24,5.12,6.2,8.59l.56,1.77c.08.19.14.4.21.61.03.08.06.17.09.25l.26.36.27.37h0s-.06-.04-.09-.05c-.03-.02-.06-.03-.09-.05-.46-.3-.7-.8-.87-1.33-.04-.13-.08-.26-.11-.39-.07-.25-.14-.51-.22-.74-.69-2.54-2.23-4.85-4.33-6.42-.46-.34-.95-.66-1.46-.92v.02h-.01s-.01.02-.01.02c.02.01.04.03.06.04.62.4,1.21.85,1.76,1.35.98.9,1.82,1.95,2.41,3.15.3.58.52,1.19.74,1.81.1.29.2.57.3.86.03.08.06.17.09.25.38.92.71,2.32,1.88,2.49v-.04s0-.01-.02-.02l-.02-.02-.03-.03Z" style="fill:#14292e;"></path>
  <path d="m268.2,208.5c-1.61-.02-3.24.29-4.73.76v.04s.06-.01.08-.02c2.3-.57,4.7-.53,7,0,.03,0,.06.01.08.02.63.15,1.3.26,1.87.57.01,0,.02.01.03.02.03.02.06.03.09.05.05.03.1.07.15.1.01,0,.02.02.03.02h0s.02.01.03.02c0,0,.01,0,.02-.01.01,0,.02-.01.02-.01-.06-.11-.12-.21-.2-.3-1.36-2.82-5.16-4.65-8.27-4.45v.05h.05c2.79.03,5.11,1.56,7.08,3.42-1.13-.74-2.4-1.24-3.73-1.54-1.43-.33-2.92-.43-4.36-.38v.04h.09c2.27.08,4.51.66,6.56,1.62.23.11.45.21.67.32-.06-.02-.13-.03-.19-.05-.78-.21-1.6-.31-2.41-.32l.04.03Z" style="fill:#14292e;"></path>
  <path d="m61.43,124.75c.28-.32.57-.66.89-.98.69-.46,1.34-.89,1.92-1.24l.62-.4-.72.13c-.72.19-1.3.63-1.83,1.14-1.16.74-2.31,1.47-3.49,2.15-7.6,4.48-10.95,2.38-12.49-6.04h-.05c.23,2.06.6,4.14,1.61,6.02,3.12,5.52,9.05,1.84,13.52-1.15-.06.07-.12.14-.18.21-2.27,2.74-3.77,7.34-.73,10.08-1.8-1.96-2.02-4.32-.97-6.81.46-1.13,1.12-2.17,1.89-3.11h.01Z" style="fill:#14292e;"></path>
  <path d="m50.48,118.73l-.05.02c1.66,6.56,5.77,6.45,10.48,3.28-5.21,2.7-7.6,2.82-10.44-3.29h.01Z" style="fill:#14292e;"></path>
  <path d="m49.04,116.17c1.4-.7,2.69-1.65,4.12-2.11,1.83-.71,3.91-.36,5.28,1.06,2.61,2.9,5.52,5.01,9.33,2.53l-.04-.09c-2.91,1.18-5,.57-7.15-1.68-3.69-4.6-7.06-3.42-11.38-.51-2.42,1.27-5.35.84-7.96.44-1.36-.25-2.7-.59-4.01-1.03l-.03.09c1.29.51,2.62.92,3.98,1.23,2.54.55,5.33.99,7.85.07h0Z" style="fill:#14292e;"></path>
  <path d="m55,118.08c-.17,0-.33-.05-.47-.13.05.64.32,1.33,1.14,1.82,1.91,1.13,2.85,0,3.77-1.04.71-.81,1.72-.51,2.45-.14-3.31-1.41-4.2-5.35-7.97-4.37.28.16.48.35.63.54.25-.28.61-.46,1.02-.46.76,0,1.38.62,1.38,1.38,0,.65-.45,1.18-1.04,1.34,0,.04,0,.08,0,.13,0,.51-.42.93-.93.93h0Z" style="fill:#14292e;"></path>
  <path d="m55.66,130.49c-3.12,1.41-5.36.79-8.09-1.04-.41-.27-.79-.57-1.23-.84l-.05.05c.84,1.28,2.07,2.36,3.54,2.85.45.11,1.08.26,1.54.28,2.1.22,3.97-.83,5.69-1.82l-.02-.07c-.48.16-.92.4-1.38.58h0Z" style="fill:#14292e;"></path>
  <path d="m62.04,131.35c2.33,5.46,4.93,1.48,8.14.44-.74-.08-2.42.5-1.46-1.83,2.7-6.57,13.04-2.6,17.25-5.95,2.18-1.73.29-3.85-1.84-3.89-2.13-.04-3.37,2.25-6.47,3.46-3.1,1.22-7.47.48-9.4.72s-8.55,1.58-6.23,7.05h0Z" style="fill:#14292e;"></path>
  <path d="m66.97,166.56c-.12-.03-.23-.06-.35-.09-.11-.03-.22-.05-.33-.08-1.06-.27-2.11-.51-3.18-.7-.85-.16-1.71-.29-2.58-.39-.32-.04-.63-.07-.96-.1l-.06.14c.47.4,1,.7,1.54.97.11.05.22.11.32.16.92.46,1.89.77,2.88,1,.96.22,1.94.36,2.92.45.1,0,.2.02.3.03h.09c.07,0,.15.01.23.02,2.73.29,5.55.39,8.24-.25l-.02-.15c-2.78.2-5.54-.26-8.25-.81-.26-.07-.52-.14-.79-.21h0Z" style="fill:#14292e;"></path>
  <path d="m70.3,172.61c-.13-.05-.25-.09-.38-.14-.09-.03-.19-.07-.28-.1-1.03-.44-2.05-.88-3.07-1.31-1.27-.54-2.54-1.07-3.84-1.57-.65-.25-1.31-.49-1.98-.72l-.08.12c.55.63,1.2,1.16,1.87,1.65.39.3.8.56,1.22.81,1.31.78,2.72,1.35,4.18,1.79.44.13.88.26,1.33.37.52.15,1.04.28,1.56.4.11.03.23.05.34.08.12.03.23.05.35.08,2.44.52,4.94.79,7.43.7v-.15c-2.82-.31-5.59-.93-8.27-1.87-.13-.05-.26-.09-.39-.14h.01Z" style="fill:#14292e;"></path>
  <path d="m34.45,228.52c-.64.82-1.15,1.73-1.32,2.92,1.89,2.85,3.91,4.8,7.82,6.03-7.19-3.42-6.49-7.53-6.5-8.96h0Z" style="fill:#14292e;"></path>
  <path d="m79.15,169.72c1.76.86,3.79.92,5.72.68-1.43,1.37-3.44,3.16-2.55,5.08l.09-.05c-.24-.51-.2-1.09.02-1.59.91-1.82,2.79-2.94,4.24-4.33l-1.05.19c-1.59.21-5.43.19-6.35-1.27-.1-.35-.08-1.02.06-1.41.62-1.65,2.48-2.46,3.35-4.06l-.08-.06c-1.34,1.29-3.41,1.89-4.21,3.77-.43,1.02-.31,2.5.76,3.04h0Z" style="fill:#14292e;"></path>
  <path d="m56.42,170.74c.86.7,2.13,1.58,3.06,2.2l.03-.04-1.5-1.14c-3.04-2.47-7.31-6.53-4.8-10.71l-.04-.03c-.79.8-1.22,1.97-1.18,3.1.07,1.49.84,2.84,1.74,3.93.76.99,1.74,1.88,2.68,2.68h0Z" style="fill:#14292e;"></path>
  <path d="m66.03,191.11c-4.79-8.13-10.55-16.18-15.58-24.16l-.09.05c1.21,2.07,2.54,4.06,3.84,6.08,3.8,5.84,7.98,12.25,11.45,18.25,2.4,4.14,4.71,8.34,6.68,12.69,1.44,3.25,2.79,6.6,3.33,10.12,1.55,12.58-1.06,27.16-10.32,36.35-5.74,5.43-12.21,6.57-19.7,6.07,4.74.88,9.78.57,14.24-1.39,15.34-6.77,19.57-29.9,15.62-44.67-2.21-6.88-5.82-13.2-9.46-19.4h0Z" style="fill:#14292e;"></path>
  <path d="m30.9,202.69l.94-.5c3.02-1.64,6.7-2.03,9.95-.98-3.24-.57-6.62.98-9.29,2.75-.51.36-1.01.75-1.52,1.12l.03.04c.52-.34,1.04-.7,1.57-1.03,2.61-1.6,5.91-2.81,9-2.44-3.09.28-5.7,2.35-7.85,4.43l.03.04c2.3-1.98,5.05-3.83,8.16-3.99.83-.04,1.69.03,2.46.37.15.07.31.15.45.24l.04-.04c-.99-1.07-2.34-1.73-3.72-2.17-3.16-.9-6.61-.1-9.41,1.49-.91.5-1.85,1.18-2.67,1.79l.03.04c.6-.38,1.18-.8,1.8-1.15h0Z" style="fill:#14292e;"></path>
  <path d="m23.54,203.43l.04.03c2.25-2.31,4.68-4.86,7.52-6.5-1.73,1.28-3.11,3.02-4.15,4.88l.04.03c2.1-3.33,5.46-5.91,9.37-6.64h0c-2.02-.73-4.49.1-6.29,1.21-1.84,1.04-3.61,2.5-5.19,3.91l.03.04c1.89-1.48,3.94-2.98,6.16-3.98-2.96,1.73-5.61,4.84-7.53,7.02h0Z" style="fill:#14292e;"></path>
  <path d="m41.03,219.89c3.29.05,7.08,1.17,8.44,4.4.41,1.01.66,2.13.75,3.22.14,2.21.08,4.66-.96,6.67l.07.07c.85-.87,1.22-2.08,1.52-3.22,2.44-11.47-8.05-13.43-16.73-10.24l.03.1c2.25-.61,4.56-1.03,6.87-.99h0Z" style="fill:#14292e;"></path>
  <path d="m26.54,209.52c.75-.29,1.28-.84,1.77-1.43.45-.49,1.06-1.21,1.5-1.7l-.02-.02-.02-.02c-.6.46-1.18.96-1.75,1.45-.61.47-1.14.99-1.52,1.68l.02.02.02.02Z" style="fill:#14292e;"></path>
  <path d="m25.78,205.62c-.33.34-.65.69-.95,1.04-.36.35-.62.73-.68,1.26l.02.02.02.02c.24-.1.42-.26.58-.43.41-.57.71-1.24,1.05-1.87l-.02-.02-.02-.02h0Z" style="fill:#14292e;"></path>
  <path d="m21.43,208.7l.02-.05c-.6-.53-1.33-.75-2.08-.92-.64-.17-1.57-.4-2.2-.56v.04c.68.33,1.38.61,2.08.89.7.33,1.4.56,2.19.59h-.01Z" style="fill:#14292e;"></path>
  <path d="m21.66,211.32c-.64-.09-1.27.15-1.81.41-.57.31-1.07.72-1.58,1.11-.42.33-.85.65-1.32.9-.48.28-1.02.51-1.57.35h-.04s0,.02-.02.03h0l-.02.03c.56.32,1.24.14,1.8-.07,1.66-.72,3.08-1.68,4.57-2.69v-.08s-.01.01-.01.01Z" style="fill:#14292e;"></path>
  <path d="m20.88,200.37h.02s0-.03.01-.05c.57-2.96,2.91-5.08,5.07-7.02.03-.03.06-.05.09-.08-.02.01-.04.02-.06.03-.04.02-.07.05-.11.07-1.17.72-2.37,1.8-3.36,2.84-1.05,1.09-2.03,2.62-1.7,4.21h.04Z" style="fill:#14292e;"></path>
  <path d="m17.32,201.15l.02-.04c-2.9-2.01-6.76-1.23-9.74.2.07-.02.15-.04.22-.06,1.48-.41,3.02-.95,4.65-.92,1.64,0,3.19.34,4.78.8.02,0,.05.01.07.02h0Z" style="fill:#14292e;"></path>
  <path d="m5.46,220.32c.56-2.07,1.56-4.05,3.13-5.56.01-.01.02-.03.04-.04l-.02-.02-.02-.02c-3.46,2.92-4.44,7.72-4.43,12.05.02-.05.03-.11.05-.16.6-1.81.69-4.33,1.25-6.26h0Z" style="fill:#14292e;"></path>
  <path d="m7.24,218.46c-.97,1.44-1.66,3.1-2.1,4.73-.22.84-.38,1.68-.56,2.52-.01.07-.03.13-.04.2-.05.2-.1.42-.19.6-.01.03-.03.05-.05.07-.02.03-.05.06-.07.09,0,0-.01.01-.02.02,0,0,0,.01-.01.02v.04c.57-.05,1-.54,1.25-1.01.29-.56.51-1.15.72-1.74.1-.28.2-.57.29-.85.21-.62.44-1.23.74-1.81.59-1.19,1.43-2.25,2.41-3.15.55-.5,1.14-.95,1.76-1.35.02-.01.04-.03.06-.04l-.03-.04c-.51.27-1,.58-1.46.92-2.11,1.57-3.64,3.88-4.33,6.42-.08.23-.15.49-.22.74-.04.13-.07.26-.11.39-.16.53-.39,1.01-.84,1.32-.04.02-.08.05-.12.07-.03.02-.06.04-.09.05l.27-.37.25-.34c.03-.08.07-.17.1-.27.25-.68.6-1.84.77-2.38.96-3.47,2.69-7.11,6.2-8.59.01,0,.02-.01.03-.02l-.02-.05c-1.96.7-3.47,2.09-4.6,3.78v.03Z" style="fill:#14292e;"></path>
  <path d="m7.15,208.76s-.08.02-.12.03c.15-.07.3-.15.46-.22,2.07-.96,4.33-1.6,6.62-1.65h.08v-.05c-1.28-.06-2.85.05-4.37.39-1.29.29-2.54.75-3.56,1.42.71-.67,1.46-1.33,2.28-1.85,1.39-.89,2.99-1.41,4.64-1.46h.05v-.02h0v-.03c-3.36-.17-6.96,1.68-8.46,4.75l.04.03s.02-.01.02-.02c0,0,.02-.01.03-.02.04-.03.07-.05.11-.08.08-.06.17-.11.27-.15.2-.09.42-.16.63-.23.42-.12.85-.22,1.28-.31,2.29-.49,4.67-.57,6.95.01.03,0,.05.01.08.02v-.04c-1.2-.42-3.01-.76-4.77-.75-.79,0-1.57.08-2.27.25v-.02Z" style="fill:#14292e;"></path>
  <path d="m22.72,207.27s0,.01.01.02h0s0-.05.01-.07c.37-1.83-3.98-3.16-5.41-3.28v.04s.05.02.08.02c1.56.4,3.03,1.16,4.31,2.12.42.31.82.63,1,1.14h0Z" style="fill:#14292e;"></path>
  <path d="m48.21,252.32c-3.3-.03-6.6-.26-9.64-1.3-6.77-2.11-9.89-8.12-9.68-14.97.03-2.29.7-7.86,2.78-9.08l-.03-.1c-.43.13-.7.49-.95.82-1.57,2.47-2.09,5.46-2.31,8.34-.52,8.18,3.8,15.33,12.34,16.49,2.48.36,5.01.29,7.48-.11v-.1h0Z" style="fill:#14292e;"></path>
</svg>
